<svg version="1" xmlns="http://www.w3.org/2000/svg" width="533.333" height="533.333" viewBox="0 0 400.000000 400.000000"><path d="M203.5 6c-.3.5-.1 1 .4 1 .6 0 1.1-.5 1.1-1 0-.6-.2-1-.4-1-.3 0-.8.4-1.1 1zM198.5 9.9c.6 1.1.4 1.3-.8.8-1-.3-1.7-.2-1.7.3s-.9.7-2 .5c-1.2-.2-1.8 0-1.5.6.4.5 1.1.6 1.7.3.6-.4.9-.3.7.2-.2.5-1.1 2.6-1.9 4.6-.8 2.1-1.8 3.8-2.3 3.8-.4 0-.5-.5-.2-1 .3-.6.1-1-.4-1-.6 0-1.1.7-1.1 1.6 0 .8-.4 1.2-1 .9-.5-.3-1-.1-1 .5 0 .7.8.9 2 .5 1.9-.6 1.9-.6.2 2.4-.9 1.7-2.1 3.1-2.5 3.1-.5 0-.5.4-.2 1 .3.5.1 1-.4 1-.6 0-1.1.5-1.1 1.1 0 .5.5.7 1.2.3.7-.5.8-.3.4.5-.5.7-1.4 1-2.2.7-.8-.3-1.4-.1-1.4.3 0 .5.6 1.2 1.3 1.4.9.4.9.6-.1.6-.7.1-1 .6-.6 1.3.5.8.2.9-1.1.4-1.5-.5-1.6-.4-.5.9 1.5 1.8-.1 2-1.8.3-.7-.7-1.2-.9-1.2-.4 0 1.4 2.7 3.5 3.6 2.8.5-.4.2.1-.5 1-.7 1-2 1.8-2.7 1.8-.8 0-1.4.5-1.4 1.1 0 .5.4.8.8.5.5-.3.9.1.9.9 0 1.1-.5 1.2-2.1.3-1.9-1-2-1-.7.5 1 1.3 1.1 2 .2 3-.6.8-1 1.6-.8 1.8.1.2-.3-.2-1-.9-.6-.8-1-1.9-.9-2.5.2-.7.1-.9-.1-.4-.3.4-.9.4-1.5.1-.5-.4-.3.5.6 1.9 2.1 3.1 2.8 6.7 1.3 6.4-.6-.1-1.2.7-1.4 1.8-.3 1.1-.7 2.7-1 3.5-.3.8-.6 1.8-.5 2.2.1.3-.5 1.2-1.3 1.8-.8.7-1.5 1.9-1.5 2.6 0 .8-.5 1.4-1.1 1.4-.5 0-.7.4-.4 1 .3.5.1 1-.5 1-.7 0-.9.7-.6 1.5.4 1-.2 1.9-1.7 2.5-1.3.5-1.6.9-.7 1 .9 0 .5.6-1 1.4-1.8.9-2.9 1-4 .2-1.2-.8-1.3-.8-.3.4 1 1.1.9 1.6-.5 2.8-.9.7 0 .4 2.1-.8 2-1.2 3.7-1.7 3.7-1.1 0 .6-.5 1.1-1.1 1.1-.5 0-.7.5-.3 1.2.5.7.3.8-.6.3-1-.6-1.2-.4-.7.8.3 1 .2 1.7-.4 1.7-.6 0-.7.4-.4 1 .6 1-.6 1.4-3.5 1.1-1.3-.2-1.3-.1 0 .8.8.5 1.9.7 2.5.3.5-.3.4.1-.2 1-.7.8-.9 1.9-.5 2.3.4.5.1.5-.7 0-1.1-.6-1.3-.3-.9 1.2.4 1.4.1 2-1 1.9-.9 0-1.7.8-1.9 1.9l-.3 2 .9-2c.5-1.1 1-1.4 1-.7.1.7-.7 2.7-1.6 4.5-.9 1.8-1.7 3.6-1.8 4.1 0 .5-.6 1.1-1.4 1.4-.8.3-1.1 0-.7-.6.4-.6-.4-1.6-1.6-2.2-2.2-1.1-2.2-1-.4.4 1.1.9 1.6 1.6 1.2 1.6-.5 0-.2.8.5 1.7 1.2 1.4 1.2 1.6-.2 1.1-1.2-.5-1.5-.1-1.2 1.5.2 1.2-.3 3.1-1.2 4.2-.8 1.1-1.4 1.4-1.3.6.2-.7-.3-1.5-1-1.7-.7-.1-.8 0-.3.2.6.3.7 1.2.4 2-.3.8 0 1.4.7 1.4.6 0 .8.5.4 1.2-.5.7-1.1.5-2.1-.7-.7-1.1-1.3-1.5-1.3-1s.8 1.7 1.8 2.8c.9 1.1 1.2 1.8.6 1.4-.6-.3-2 .1-3 .9-1.7 1.4-1.7 1.5-.1 1 2.1-.7 2.2.7.2 2.4-.8.7-1.2 1.6-.9 2.1.3.5 0 .9-.5.9-.6 0-1.1.7-1.1 1.6 0 .8-.5 1.2-1.1.8-.8-.4-.8 0 0 1.5.9 1.7.9 2.1-.1 1.9-.7-.2-1.3.5-1.3 1.4 0 1-.6 2.3-1.4 3-1.1 1.1-1.3 1.1-.6-.1.6-1 .4-1.2-.4-.6-.9.5-1 1-.2 1.8.7.7.5 1.4-.7 2.3-1.4 1.1-1.4 1.3-.2 1.4.9 0 1.1.3.4.8-1.2.8-4.4 7.5-4.4 9.1 0 .6-.5 1.1-1 1.1-.7 0-.7-.7 0-2.1.7-1.1 1-2.3.7-2.5-.2-.2-.9.7-1.5 2.1-.7 1.5-.8 2.6-.2 3 .7.4.6 1.3 0 2.6-.6 1.1-1.6 1.7-2.2 1.3-.6-.4-.8.1-.4 1.4.7 2.2-1.3 4.9-5 7-1 .6-1.5 1.4-1.1 1.8.4.4 1.4-.1 2.3-1.2 1.4-1.8 1.5-1.8.8.6-.9 3.3-.9 3.3-3.6 2-2.2-1.1-2.3-1.1-.3.6 1.4 1.1 1.6 1.8.8 2.1-.7.3-1.3.9-1.3 1.4 0 .6.5.7 1.2.3.7-.4.8-.3.4.5-.4.6-1.1.9-1.6.6-.4-.3-1 .2-1.3 1-.4 1-.1 1.2 1.1.9 1-.4.7.2-.8 1.4-1.3 1.1-2.9 1.8-3.4 1.5-.5-.3-.6-.1-.2.5.4.6 1.4.8 2.3.5 1.5-.6 1.6-.5.3.9-1.1 1.1-1.9 1.3-2.8.6-.9-.8-1.1-.7-.6.6.3.9 1.1 1.6 1.8 1.6s.6.4-.2.9c-.8.4-1.4 1.2-1.5 1.7-.1.5-.5.8-.9.7-.3-.1-.9.4-1.2 1.3-.3.8-.2 1.3.3 1 1.3-.8.3 2.5-1.4 4.8-1.4 1.8-1.5 1.8-3.5-.5l-2-2.4 1.7 3.2c1 1.7 2.2 2.9 2.7 2.6.5-.3.6-.1.2.6-.5.7-1.7.9-2.9.5-2.1-.6-2.1-.6-.3.8 1.3 1.1 1.6 1.7.7 2.2-.6.4-.8 1.2-.5 1.8.5.7.1.9-.9.5-.9-.3-1.8 0-2.1.9-.3.8-.2 1.3.2 1 1-.6.8 2.1-.2 4.6-.4.9-1.5 1.9-2.4 2.3-1.3.5-1.2.1.4-1.6l1.9-2.3-2.7 2c-2.4 1.7-2.5 2-.8 2.9 1.5.9 1.6 1.2.4 2.3-.8.7-1.2 1.7-.9 2.3 1.4 2.2-2.6 2-4.5-.2l-2-2.4 1.7 3.2c1 1.7 2.1 3 2.4 2.7.4-.2-.2 1.5-1.3 3.8-2 4.3-3.8 6.2-4.7 5.2-.3-.3 0-.9.8-1.3 1-.7 1-.9-.2-1.4-1-.4-1.4.1-1.3 1.6.1 1.3.8 2.1 1.5 1.9.9-.2 1.1.3.7 1.3-.3.9-.6 1.9-.6 2.1 0 .2-.5.4-1.1.4-.5 0-.8-.4-.5-.9.3-.5-.2-1.5-1.2-2.2-1.4-1.1-1.5-1.1-.5.1 1 1.1.9 1.6-.5 2.7-1.5 1.1-1.5 1.2-.1.7 1-.3 2-.1 2.3.4.3.6-.4 1.2-1.7 1.6-1.5.3-2.3 1.3-2.4 2.8l-.1 2.3 1-2.3c.6-1.2 1.5-2.2 2.1-2.2.5 0 .5.6-.2 1.3-.6.8-.8 1.7-.4 2 .3.4.1.7-.6.7-.8 0-1.1.7-.7 1.5.3.8 0 1.4-.7 1.2-.7-.1-1.1.6-.9 1.6.2.9-.2 1.7-.8 1.7-.6 0-.8-.4-.5-1 .3-.6-.1-.7-.9-.4-1.4.5-1.4.8-.1 2.1 1.7 1.7 2 2.7.5 1.8-.5-.3-1 .3-1 1.4 0 1.2-.7 2.1-1.5 2.1s-1.5.5-1.5 1.1c0 .5.6.7 1.3.3.7-.5.6 0-.3 1.1-.8 1-1.5 2.1-1.4 2.4.1 1.1-3.7 9-4.6 9.6-.6.4-.7 1.1-.4 1.7.5.7.1.9-.9.5-1-.3-1.7-.2-1.7.3 0 .6.5 1 1.2 1 .6 0 .4.8-.6 1.9-.9 1-1.8 3.1-2 4.5-.2 1.5-.8 3.2-1.4 3.8-.7.7-1.2 1.8-1.2 2.6 0 .9-.6 1.2-1.6.8-1.4-.5-1.5-.4-.4.9.9 1.1.9 1.5.1 1.5-.7 0-.9.5-.6 1 .3.5.1 1-.5 1-.7 0-.9.7-.6 1.6.4 1 .2 1.3-.6.8s-.9-.2-.5 1c.4 1.1.1 1.9-.9 2.3-1.9.7-3.6-1.6-2.8-3.7.4-1.1.2-1.2-.6-.4-.9.9-.9 1.7-.1 3.2.8 1.5.8 2.2-.2 2.6-.6.3-.1.4 1.3.1 1.4-.3 2-.2 1.3.1-.7.3-.9 1.2-.6 2 .3.8 0 1.4-.7 1.4-.6 0-.8.5-.4 1.2.5.7.3.8-.6.3-.8-.5-1.1-.3-.8.6.5 1.4-1.9 6.8-3.7 8.1-.5.4-1.3.4-1.9.1-.5-.3-.6-.1-.2.6.4.6 1.1.9 1.5.7.4-.3.8.1.8.9 0 1.7-1.8 1.5-3.5-.5-1.1-1.2-1.1-1.1-.1 1 1.6 3.2 2 5.2.8 4.4-.5-.3-1 0-1 .5-.1.6-.2 1.6-.3 2.1-.1 1.3-2.7 3-3.6 2.5-.3-.2-.7.5-.7 1.6-.1 1 .3 1.9.8 1.9s.3 1-.6 2.3c-.8 1.3-1.2 2.7-.8 3 .3.4.1.7-.5.7-.7 0-1.1.3-1 .7.1.5-.3 1.8-1 2.9-.6 1.2-.8 2.5-.4 2.9.4.4-.3.2-1.6-.4-2-1.1-2.6-.8-2.3 1.2.1.4-.4 1.7-1 2.9-.7 1.3-.7 1.8-.1 1.4.6-.3 1.3-.2 1.6.3.3.5-.4 1.1-1.5 1.4-1.6.4-2 1.1-1.6 2.6.4 1.5 0 2.1-1.1 2.1-1.5 0-1.5.2-.2 1 1 .6 1.1 1 .3 1-.7 0-1.3.5-1.3 1.1 0 .5.5.7 1.2.3.7-.4.8-.3.4.5-.4.6-1.2.9-1.7.6-.5-.3-.6.1-.3.9.3.9.2 1.6-.4 1.6-.5 0-1.3 1.1-1.6 2.5-.4 1.4-1 2.4-1.4 2.1-.4-.3-1.4 0-2.2.6-1.2.8-1.2.9.2.4 1-.3 2-.1 2.3.4.4.6-.2 1-1.2 1.1-1 0-1.3.3-.6.5.9.4.9 1.1.1 2.9-.6 1.4-1.5 2.2-1.9 1.9-.4-.2-.6.5-.4 1.6.2 1.1-.1 2-.6 2-.6 0-.7.4-.4 1 .3.5 2.4 1 4.6 1 2.4 0 3.9.5 4 1.2 0 .7.4.4.9-.7l.9-2v2c.1 1.3.4 1.6.9.8.8-1.3 5.2-1.4 5.2-.1 0 .4.5.8 1.1.8.6 0 .8-.7.5-1.6-.6-1.6.5-1.2 3.6 1.5 1.7 1.4 1.7 1.6 0 3.5-1.3 1.6-1.3 1.8-.1.8.9-.6 1.8-.9 2.2-.6.9 1 .2-1.9-1.1-4.3-1.1-1.9-1-2.2.3-1.7.8.4 1.5 1 1.5 1.5s.5.9 1.1.9c.5 0 .7-.5.3-1.1-.4-.7-.1-1 .7-.7.8.3 2.4.1 3.6-.3 1.8-.7 2.1-.5 1.6.9-.6 1.5-.5 1.5 1.1.3 1.5-1.3 1.9-1.3 2.7 0 .6 1 .9 1 .9.1 0-.6 1.2-1.2 2.6-1.2 1.4 0 2.3-.4 1.9-1-.6-.9.8-1.5 2.9-1.1.5.1.3-.6-.5-1.5-1.2-1.5-1.2-1.7 0-.9 1.1.6 1.3.4.8-.8-.3-.9-.1-1.9.5-2.3.7-.5.8-.2.3.7-.5.8-.5 1.1 0 .7.4-.4 1.5-.2 2.3.5 1.2.9 1.2.6-.1-1.4-1.7-2.5-1.4-5.9.4-5.9 1.3 0 1.1 1.8-.3 2.3-1 .4-1 .6-.1.6 1.8.1 2.6-1.8 1.4-3.3-1.4-1.6-.2-2.9 1.5-1.5.8.7 1.4.6 2-.2.4-.7.3-.9-.3-.6-1.9 1.2-2.4-2.5-.8-5 .9-1.3 1.3-2.9.9-3.5-.4-.7-.3-.8.4-.4s1.2.2 1.2-.4c0-.6.5-.8 1.3-.4.7.5.6 0-.3-1.1-1.4-1.7-1.3-1.7 1-1s2.3.7.7-1c-1.6-1.6-1.6-1.9-.2-3.5.8-.9 1.2-1.9.9-2.3-.6-.5 2.3-2.4 4-2.6.6 0 1.1-.7 1.2-1.6.1-.8-.2-1.3-.7-.9-.5.3-.7 1-.4 1.5.3.5-.1.6-1 .2-1.2-.4-1.3-.8-.5-1.3.6-.4 1.3-1.6 1.4-2.6.2-1 1.1-1.8 2-1.8.9.1 1.6-.2 1.6-.7 0-.5-.6-.9-1.2-.9-.9 0-.8-.3.2-1 .8-.5 1.1-1.2.7-1.6-.4-.4-.2-1.3.4-2.1.6-.7.8-1.3.4-1.3-.5 0 0-.9 1-2 1.1-1.2 2-3.1 2.2-4.2.2-1.2 1.2-3 2.3-4.1 1.1-1 1.8-2.2 1.5-2.7-.3-.5 0-2 .7-3.2.7-1.3 1.1-2.6 1-3-.1-.4.9-.5 2.3-.2 1.3.2 2.7-.1 3.1-.7.4-.7.3-.9-.4-.6-.5.4-1.8.4-2.7.1-1.1-.5-1.3-.9-.5-1.4.6-.4 1.3-1.6 1.4-2.6.2-1 1-1.9 1.8-1.8.8.1 1.5-.5 1.5-1.2 0-.8-.5-1.4-1-1.4-.6 0-.3-.8.6-1.8 1-1 1.4-2.2 1-2.7-.5-.4-.2-.5.5-.1.8.5 1.4-.2 1.8-2.3.4-1.7 1.3-3.1 2-3.1.8 0 1.4-.5 1.4-1.1 0-.5-.4-.8-.9-.4-.5.3-1.3 0-1.7-.7-.4-.7-.4-1 0-.6.5.4 2.1-.7 3.7-2.3 2.9-3 3.8-5.9 1.8-5.9-.8 0-.9-.4 0-1.3.6-.8.8-1.7.4-2.1-.4-.4.1-.4 1.1 0 1.2.5 1.4.9.6 1.4-.8.5-.7.9.3 1.3 1.1.4 1.5 0 1.2-1.4-.2-1-.6-2.2-.9-2.7-.8-1.3 2.2-7.2 3.7-7.2.9 0 1.3-.9 1.2-2.5-.2-1.4.1-2.3.6-1.9.5.3.9 0 .9-.5 0-.6.3-1 .8-1 .4.1.9 0 1.2-.1 1.9-.7 4-.7 4 .1 0 .8-1.5 1.3-3.2 1-.5 0-.8.3-.8.9 0 .6-.3.9-.7.9-2-.3-2.4.2-1.4 1.5 1 1.2.8 1.7-.7 2.5-1.1.6-2.3.7-2.7.3-.5-.4-.5.1-.2 1.1.4 1.1.3 1.6-.3 1.2-.6-.4-.7.1-.3 1.1.6 1.6.8 1.5 1.6-.4.6-1.2 1.9-2.4 2.9-2.8 1.1-.3 1.7-1.2 1.4-2-.3-.7-.1-1.6.4-1.9.5-.3 1.1.3 1.3 1.2.3 1.3.5 1.2.6-.5 0-1.3.5-2 1.1-1.7.6.4.7 1.1.4 1.7-.4.7-.2.8.5.4.6-.4.9-1.2.6-1.7-.4-.5-.1-1.7.5-2.6 1.1-1.7 1.1-1.7.6 0-.8 2.5 2.2 3.4 4.2 1.2 1.3-1.3 1.3-1.6.2-1-.9.5-1.2.4-.7-.1 1.1-1.2 40.7-1.2 41.4 0 .4.5 0 .6-.7.1-.9-.6-1.1-.4-.6.4.5.7 1.1 1 1.4.7.3-.3 1.1-.1 1.8.5.9.7 1.4.5 1.9-1.1.3-1.1 1.1-1.8 1.6-1.4.5.3.7 1 .4 1.5-.4.5.1 1.2.9 1.5.9.3 1.4 1 1.1 1.4-.3.5 0 1.2.7 1.6.7.4 1 .4.6-.1-.4-.4 0-1.4 1-2.2.9-.8 1.1-1.2.5-.8-2.1 1-4.4-.8-3.3-2.5.7-1 1-1.1 1-.3 0 .7.5 1.3 1.1 1.3.5 0 .7-.5.4-1-1-1.7.5-1.1 2.7 1l2.2 2 1.3-2.2c1.2-2.2 1.4-2.2 1.7.2.1 1.2.6 1.3 2.8.5 1-.4 1.5-1.1 1.2-1.6-.9-1.6.6-1 2.8 1.1l2.2 2 1.3-2.2c1.2-2.2 1.4-2.2 1.7.2.1 1.2.6 1.3 2.8.5 1-.4 1.5-1.1 1.2-1.6-.9-1.6.6-1 2.8 1.1l2.2 2 1.3-2.2c1.2-2.2 1.4-2.2 1.7.2.1 1 1.2 1.1 3.3.3.7-.3 1-.9.7-1.4-.9-1.6.6-1 2.8 1.1l2.2 2 1.3-2.2c1.1-2 1.8-1.8 1.4.5-.1.4.6 1 1.4 1.3.8.3 1.3 1 1 1.4-.3.5 0 1.2.7 1.6.7.4 1 .4.6-.1-.4-.4 0-1.4 1-2.2.9-.8 1.1-1.2.5-.8-2.1 1-4.4-.8-3.3-2.5.7-1 1-1.1 1-.3 0 .7.5 1.3 1.1 1.3.5 0 .7-.5.4-1-1-1.7.5-1.1 2.7 1l2.2 2 1.3-2.2c1.2-2.2 1.4-2.2 1.7.2.1 1.2.6 1.3 2.8.5 1-.4 1.5-1.1 1.2-1.6-.9-1.6.6-1 2.8 1.1l2.2 2 1.3-2.2c1.2-2.2 1.4-2.2 1.7.2 0 .5.4 1 .9 1h1.7c.6 0 1-.5 1-1.1 0-.5-.4-.7-1-.4-.5.3-1 .2-1-.4 0-.5.9-.9 2-.8 1.4.1 1.9.6 1.5 1.6-.3.9-.3 1.2.1.8.4-.4 1.4-.1 2.3.6 1.4 1 1.4 1 .4-.4-.7-.9-1-1.9-.6-2.2.9-.9 2.3-.9 2.2 0-.4 2.3.3 3.5 1.5 3 1.9-.8 2.8.3 1.5 1.9-.7.8-.6 1.4.2 2 .7.4.9.3.5-.4-.3-.6.4-1.8 1.6-2.8 1.4-1 1.6-1.4.6-1.1-1.6.6-3.5-2-2.3-3.1.3-.3.5.1.5.9 0 1.1.2 1.1 1-.1.6-1 1-1.1 1-.3 0 .7.5 1.3 1.1 1.3.5 0 .7-.5.3-1.2-.4-.6-.3-.8.4-.4.6.3.8 1.9.6 3.3-.3 1.5-.2 2.5.1 2.1.6-.6 1.2-2.9 1.4-5.3.1-.6.6-.3 1.1.5.8 1.2 1.2 1.3 1.9.2s.9-1 1.5.3c.3.9 1.1 1.3 1.7 1 .6-.4.5.2-.2 1.4-.9 1.3-1.6 1.6-2 .9-.4-.6-1.2-.7-1.9-.3-.9.6-1.1.4-.5-.5.5-.9.4-1.1-.3-.6-1.7 1-1.5 2.9.3 2.3.8-.4 2.5.7 4 2.6 1.7 2 2.2 2.4 1.5.9-.7-1.4-.7-2.2 0-2.2.5 0 1 .7 1 1.5s.5 1.5 1 1.5c.6 0 .9.3.9.8-.4 2.1.2 3.2 1.4 2.6.6-.4.9-.4.5.1-.4.4-.3 1.4.3 2.2.8.9.8 1.3.1 1.3-.6 0-1.5-.7-2-1.6-.6-1.1-1.1-1.3-1.6-.5-.4.6-.2 1.1.5 1.1 1 0 1 .3.1 1.2-.7.7-1.2 1.6-1.2 2.2 0 .5.6.3 1.3-.6 1.6-2.1 6-.7 5.1 1.7-.3.8-1 1.5-1.5 1.5s-.9.5-.9 1.2c0 .6.7.4 1.8-.5 1.3-1.2 1.9-1.3 1.9-.5.1 2.4.8 4.3 2 5.3.9.7 1 1.4.2 2.5-.9 1.2-1 1.1-.4-.5.5-1.5.3-1.7-.6-.8-1.8 1.8-.1 3.7 1.9 2.1 1.4-1.2 1.4-1 .2 1.2-1.3 2.4-1.2 2.4.5 1s1.8-1.4.6.7c-1 2-.9 2.2.6 1.6 1.6-.6 1.7-.5.3 1.2s-1.3 1.8.3 1.2c1-.4 1.6-.3 1.2.2-.3.5 0 1.1.7 1.3.6.2 1.1 1.8 1.1 3.6s.4 3.2.9 3.2c.4 0 .8-.5.8-1.2 0-.6.3-.8.6-.5.4.4.1 1.3-.6 2.2-.7.8-.9 1.5-.5 1.5s.2.7-.5 1.5c-1.1 1.3-1 1.4.3.9 1.2-.4 1.5 0 1.3 2-.2 1.4.1 2.3.5 2 .9-.5.5-4.6-.6-6.4-.3-.5-.1-1 .4-1 .6 0 1.1.7 1.1 1.5s.5 1.5 1.1 1.5c.5 0 .7.5.4 1-.4.6-.1 1.8.6 2.6.7.9 1.4 2.3 1.6 3.2.1.9.7 1.8 1.2 2 .6.2 1.1.8 1.1 1.4 0 .6-.9.3-2-.7s-2-1.5-2-1c0 1.1 4.1 4.5 5.4 4.5.6 0 .5.4-.2.9-1.1.7-1.1.9.2 1.4.9.4 1.6 1.2 1.6 1.8 0 .8-.4.8-1.5-.1-.9-.7-1.8-1-2.2-.6-.3.3-.1.6.6.6.6 0 1.6 1.2 2.1 2.6.6 1.4 1.4 2.3 1.9 1.9 2-1.1 2.9 2.8 1.4 5.4-1.4 2.4-1.4 2.5.1.7.9-1.1 1.9-1.6 2.3-1.3.3.4.3.7-.1.7s.4 2.1 1.9 4.7c2.3 3.8 2.5 4.5 1 3.9-1.5-.5-1.6-.4-.5.9.7.8 1.7 1.2 2.3.8.5-.3.7-.1.3.5-.3.5 0 1.3.6 1.5.8.3.6.6-.4.6-1 .1-1.8.4-1.9.8 0 .5-.2 1.6-.4 2.5-.3 1.4 0 1.6 1.5.8s2.4-.5 4 1.2c1.3 1.5 1.7 2.5 1 3.2-.5.5-1 1.7-.9 2.6 0 1.1.3 1 .8-.4.5-1.3 1-1.6 1.4-.9.4.6 0 1.9-.9 2.7-.8.9-1.1 1.6-.5 1.6.5 0 1.3-.5 1.7-1.1.9-1.5 4.4 5 3.7 6.8-.3.7-.8 1.1-1.2.8-.4-.2-.8.2-.8 1 0 1.3.4 1.2 1.9-.2 1-.9 1.9-1.3 1.9-1 .2 1 .6 2.6.9 3.4.1.5.2 1.1.1 1.5 0 .5.4.8 1 .8s.8.7.5 1.6c-.3.8-.2 1.2.4.9.6-.3 1-.1 1 .4 0 .6 1.2 1.1 2.6 1.1 1.7 0 2.3.4 1.9 1.3-.4.6 0 .4.8-.6.9-1.1 1.8-1.4 2.1-.8.4.5.2 1.2-.4 1.6-.5.3-1 1.1-1 1.7 0 .5.9 0 2-1.3 1-1.3 1.9-1.8 2-1.2 0 .7.5 1.3 1.1 1.3.6 0 .8-.7.5-1.6-.6-1.6.5-1.2 3.6 1.5 1.1 1 1.4 1.9.8 2.6-.7.8-.5 1.2.4 1.2 1.6 0 1.5-1.3-.2-4.5-.7-1.2-1.1-2.2-.9-2.2.9 0 4.6 3.7 4.2 4.2-.3.2.2.5 1 .5 2 0 1.9-.7-.2-2.2-1.5-1.1-1.4-1.2.9-1.2 2 0 2.5.4 2.2 1.6-.3.9.2.5 1.1-.9 1.1-1.6 1.4-1.8 1-.6-.5 1.6-.3 1.7 1.1.6 1.3-1.1 1.7-1.1 2.4-.1.5.9.9 1 1.1.2.2-.6 2.5-1.1 5-1.2 4.2-.2 4.7-.5 4.5-2.5 0-1.2-.4-2-.7-1.8-.4.2-1-.3-1.3-1.2-.4-1-.2-1.3.7-.9.6.4.4 0-.6-.8-1.4-1.1-1.5-1.6-.5-2 .8-.3.5-.6-.6-.6-1.1-.1-1.6-.4-1.3-.8.4-.3 0-1.5-.9-2.5-1.4-1.4-1.4-2-.4-3.3 1.1-1.3 1-1.5-.6-.9-1.8.5-1.8.4.1-1.2 1.6-1.4 1.7-1.6.3-1.1-1.1.4-2.1-.1-2.8-1.3-1.2-2.2-1.3-4.7-.2-3.6.4.4.7 1.3.7 1.9 0 .5.7 1.2 1.5 1.4 1.3.4 1.3.3 0-.6-.8-.6-1.1-1.1-.6-1.1.5 0 .3-.6-.3-1.3-.6-.8-.8-1.6-.5-2 .3-.3-.3-.3-1.4-.1-2.1.6-3.8-2.1-2-3.2.6-.4.8-.3.4.4-.3.6-.2 1.3.3 1.6 1.2.8.8-1.3-.8-4.2-.7-1.3-1.5-2.1-1.8-1.8-.3.3 0 1.2.7 2.1.7.8.8 1.5.3 1.5s-1.5-1.1-2.1-2.5c-.9-1.9-.8-2.7.4-4 .9-.8 1.2-1.5.7-1.5s-1.4.5-2.1 1.2c-.7.7-1.2.8-1.2.2 0-.5.6-1.6 1.3-2.3 1-1 .8-1.1-.8-.5-1.8.7-1.9.6-.5-1.1 1.4-1.7 1.3-1.8-.4-1.2-1.3.5-1.7.3-1.3-.7.3-.8-.1-1.7-.9-2-.9-.3-1.4-1.2-1.2-1.8.3-.7-.3-2.1-1.3-3.2-1.6-1.7-1.7-2.1-.2-4.5 1.4-2.4 1.4-2.5-.1-.7-.9 1.1-1.7 1.7-1.7 1.3-.1-.4-.2-1.3-.3-2-.1-.6-.7-1.1-1.3-1-.7.2-1-.7-.7-2.2.3-1.6 0-2.4-.8-2.3-.7.2-1.3-.2-1.3-.7-.1-.6-.5-1.9-1-3-2.3-5.9-3.1-7.5-3.7-7.5-.5 0-.8-.9-.8-2s-.4-2-.9-2-.7-.9-.4-2c.3-1.3 0-2-.8-2-1.1-.1-1-.3.2-1.3.8-.7 1.8-2.1 2.2-3.2.6-1.6.3-1.5-1.2.5-1.1 1.4-2.1 2.3-2.3 2-.2-.3-1.1-2-2.1-3.7-1.5-2.8-1.6-3.2-.3-2.7.9.3 1.4 1 1.1 1.4-.3.4.3 1.4 1.3 2.1 1.5 1.2 1.6 1.2.5-.2-.7-.9-1-1.9-.7-2.2.4-.3-.5-1.1-1.9-1.8-1.4-.6-2.8-2.2-3.1-3.4-.3-1.3-.9-3-1.2-3.9-.5-1.2-.2-1.5 1.2-1 1.5.5 1.6.4.5-.4-.8-.6-2.1-.7-3-.4-1.4.5-1.4.4-.1-1.4.8-1 1-1.6.5-1.1-1 .8-5.8-7.1-5-8.3.3-.5-.3-1.3-1.2-1.9-1.6-.9-1.6-1-.1-1.1.9 0 2-.5 2.4-1.1.4-.7 0-.9-1.4-.5-1.5.5-2.4.1-3.1-1.2-.6-1.1-.7-2.2-.4-2.6.3-.3.1-.6-.5-.6-.7 0-1.2-.5-1.2-1.1 0-.5.6-.7 1.3-.4.6.4.1-.3-1.3-1.5-1.4-1.2-1.8-1.9-1-1.5.8.4.7 0-.4-.9-1-.8-1.5-1.9-1.2-2.5.4-.5-.2-1.5-1.1-2.1-1.6-1-1.6-1.1-.1-.6 1 .3 2 0 2.4-.6.5-.7.2-.8-.6-.3-.9.5-1 .1-.6-1.6.6-2 .5-2.1-.4-.7-1.6 2.5-3.3 2.3-2-.2.9-1.6.8-1.8-.5-1.4-.9.4-1.5.3-1.3-.2.1-.5-.3-1.9-1-3.1-.9-1.6-.9-2.4 0-2.9.7-.5.8-.3.3.6-.5.9-.4 1.1.4.6 1.8-1.1.4-2.5-2.2-2l-2.2.5 2.2-1.2c1.8-1 3-4.9 1.3-4.7-.3 0-1.2 0-2-.1-1.3-.1-1.3-.2 0-1.1.9-.6 1-1 .3-1-2.2 0-2.4 1.9-.3 3 2 1.1 1.9 3-.2 3-.6 0-.9-.3-.5-.6.3-.4-.1-1.3-.9-2.1s-1.2-1.9-.9-2.4c.4-.5.2-.9-.3-.9-.6 0-1.3-.7-1.6-1.6-.5-1.4-.4-1.5.8-.4.9.6 2.1 1 2.8.7.8-.4.7-.6-.4-.6-1-.1-1.8-.6-1.8-1.1 0-.6-.7-1-1.5-1-1.3 0-1.3-.4.2-2.7 1-1.5 1.3-2.4.6-2-.6.4-1.4.1-1.7-.5-.3-.7-.3-.3 0 .9.3 1.3.1 2.3-.5 2.3s-1-.3-1-.8c.3-1.9-.2-3.3-1.1-2.7-.5.3-.7 0-.4-.8.3-.8.1-1.8-.5-2.1-.6-.4-.7-1.4-.4-2.4.3-.9.2-1.4-.2-.9-1.4 1.2-3.4-4.5-2.2-6.1.7-.9.6-1.1-.7-.6-1.1.4-1.6.2-1.4-.7.2-.8-.2-1.3-.9-1.2-.7.2-1-.4-.7-1.2.4-.8.1-1.5-.5-1.5s-.8-.7-.5-1.5c.4-.9 0-1.5-.7-1.5-1-.1-.9-.5.4-1.4.9-.7 1.7-1.7 1.7-2.1 0-.4-.7-.2-1.5.5-1.2 1-1.6.9-2.1-.3-.3-.9-.4-2-.1-2.4.2-.4 0-1.7-.4-2.8-.9-1.8-.9-1.8-.5.2.2 1.3 0 2.3-.5 2.3s-.9-1.1-.9-2.5-.4-2.5-1-2.5c-.5 0-1-.6-1-1.4 0-.8-.6-1.7-1.2-1.9-1-.4-1-.6-.1-.6.7-.1 1-.8.6-1.7-.5-1.3-.7-1.3-1.4-.2-.7 1-.9.9-.9-.5 0-2.7-.2-3.1-1.9-4.4-1.4-1-1.4-1.1.4-1 1.1.1 2.1-.5 2.3-1.6.2-.9-.1-1.7-.7-1.7s-.8.8-.5 1.7c.5 1.7.5 1.7-.9.1-.8-1-1.7-1.5-2.1-1.1-.4.4-.4 0 0-1 .3-.9.2-1.7-.4-1.7-1.5 0-2.3-2.8-1-3.6.6-.4.8-.3.5.3-.4.6.3 1.9 1.5 2.9 1.2 1.1 1.8 1.4 1.5.7-.4-.6-.1-1.4.5-1.7.7-.3.4-.4-.7-.3-1.1.1-2-.3-2-.8 0-.6-.4-1.6-.8-2.3-.5-.6-.5-1.6-.2-2.2.3-.6-.1-.7-1-.4-1.2.5-1.3.9-.4 2 .6.8.7 1.4.2 1.4-1.1 0-3.3-4.4-3.3-6.5 0-.8.8-1.5 1.7-1.5 1.3 0 1.4.3.5 1.2-1.5 1.5-1.5 2.8 0 2.8.6 0 .8-.3.5-.7-.4-.3-.2-1.2.4-1.9.8-.9.5-1.5-1-2.3-1.4-.8-2.1-.8-2.4.2-.2.6-.8.9-1.2.5-.4-.4-.2-1.5.6-2.5 1.2-1.5 1.2-1.6-.4-1-1.1.4-1.6.3-1.2-.3.3-.6.2-1-.3-1-2 0-2.1-3.1-.3-4.9 1.7-1.7 1.8-2 .4-2.6-.9-.3-2.1-.1-2.7.5-.8.8-.5.9.9.4 1.8-.7 1.9-.6.6 1-1.1 1.2-1.6 1.4-2.2.5-.8-1.4-.1-3.9 1.2-3.9.5 0 .9-.5.9-1.2 0-.6-.9-.3-2 .7s-2 1.3-2 .7c0-.6.5-1.4 1-1.7.8-.5.7-1.2-.1-2.2-1-1.2-1-1.6.2-2.4.9-.5 1-.9.2-.9-1.9 0-2.6 2-1.3 3.5.9 1.1.9 1.5.1 1.5-.6 0-1.4-1.4-1.7-3-.4-1.7-1-3-1.5-3s-.9-.5-.9-1.1c0-.5.5-.7 1.2-.3.8.5.9.2.5-.9-.4-1 .1-2.1 1.1-2.7 1.6-1.1 1.6-1.1 0-.6-1 .3-1.8-.2-2.1-1.2-.2-.9-.3-.7-.2.5.1 1.3-.5 2.9-1.3 3.5-1.3 1.1-1.5 1-.9-.5.4-1 0-2.9-.9-4.3-.9-1.3-1.4-2.7-1.1-3 .3-.3-.3-1.4-1.4-2.5-1.1-1.1-1.7-2.5-1.3-3 .4-.6 0-1.6-.7-2.1-1-.7-.9-.8.6-.4 1.9.6 1.9.6.1-.9-1-.8-2.3-1.2-2.9-.8-.6.3-.7.1-.3-.5.3-.6.2-1.3-.4-1.7-.6-.3.1-1.7 1.7-3.1 1.4-1.3 2.1-2.4 1.5-2.4-.6 0-1.5.7-2 1.6-.7 1.3-1.1 1.2-3.3-.6-1.3-1.2-1.9-1.9-1.3-1.6.7.3 1.5-.1 1.8-1 .9-2.4.6-4.2-.4-1.9l-.8 2-.8-2c-.4-1.1-1.2-2.4-1.8-2.8-.6-.5 0-.6 1.4-.2 2.3.6 2.4.5.5-.6-3.2-2-4.6-3.7-3.6-4.4.6-.3 1.4.3 2 1.2.9 1.6 1 1.6.8-.3-.1-1.8-.6-2.1-2.7-1.8l-2.5.4 2.5-1.4c1.4-.8 2.9-1.2 3.4-.9.5.4.6.1.2-.5-.4-.6-1.4-.8-2.3-.5-1 .4-1.4.2-1-.4.5-.7-.2-1-1.9-.8-1.9.2-2.4-.1-1.9-1.3.3-.8-.3-2.1-1.2-2.9-1.2-.9-1.3-1.2-.3-.8.8.4.6-.1-.4-.9-1.1-.9-1.4-1.6-.8-1.6.7 0 1.2-.5 1.2-1.1 0-.5-.4-.7-1-.4-.5.3-1-.1-1-.9 0-.9.6-1.3 1.4-1 .8.3 1.7.1 2-.4.3-.5-.8-.8-2.4-.6-2.1.3-3-.1-3-1.1 0-.8-.5-1.5-1.2-1.5-.6 0-.8-.3-.5-.6.4-.4 1.4-.1 2.3.7 1.6 1.3 1.6 1.2.4-.8-.8-1.2-1.8-1.9-2.2-1.7-.4.3-.8-.2-.8-1s.7-1.9 1.7-2.4c1.4-.9 1.4-1-.6-1.7-1.2-.3-1.8-1.1-1.5-1.7.5-.7.2-.8-.6-.3-1 .6-.9 1.1.4 2.1 1.2.8 1.4 1.4.6 1.9-.6.4-1.2.5-1.3.4-.1-.2-.8-1.5-1.5-2.8-.8-1.2-.9-2-.3-1.6 1.8 1.1 1.2-.7-.6-2.1-1.5-1.1-1.6-1.5-.4-2.6 1.2-1.1 1.3-1 .7.7-.6 1.5-.4 1.7.5.8 1.6-1.6.3-3.2-2.4-2.6-1.4.3-1.8.2-1-.4 1-.7.7-1.3-.8-2.7-1.7-1.4-1.8-2-.8-3.2 1-1.2.9-1.3-.7-.8-1 .4-1.6.4-1.2-.1.4-.4.2-1.5-.5-2.3-1-1.3-.9-1.4 1-.4 1.5.8 2.4.9 2.8.2.4-.6.1-.9-.7-.8-.7.2-1.2-.4-1-1.3.1-.9-.5-2-1.4-2.3-1.4-.5-1.5-.4-.4.9 1 1.2.9 1.5-.5 1.5-1.3 0-1.6-.6-1.3-2.4.4-1.7.1-2.3-.9-1.9-.9.4-1.3-.3-1.3-2.2 0-1.5-.4-2.4-1-2-.6.4-1 .3-.9-.2.1-.4-.5-2.4-1.4-4.3-.8-1.9-1.3-3.8-1.1-4.2.3-.5-.2-.8-1.1-.8-1.2 0-1.5-.5-1-1.8 1.1-2.9 1.1-3.4-.5-3.9-1.2-.4-1.2-.3-.1.5.9.7 1 1.2.2 1.6-.9.6-1.6-.8-.9-1.7.2-.1-.7-1.6-2-3.4-2.6-3.7-2.7-4.4-.7-3.7.8.4 1.3.9 1 1.4-.2.4.2 1.6 1.1 2.6 1.4 1.8 1.5 1.8.5-.2-.6-1.2-.8-2.4-.4-2.7.3-.4-.1-.9-1-1.3-.9-.3-1.5-1.1-1.3-1.7.1-.7.1-.9-.1-.5-.9 1.6-2.1.7-3.3-2.2-.8-1.9-2-3-3.2-3-1 0-1.6-.5-1.3-1 .3-.6.1-1-.4-1-.6 0-1.1.5-1.1 1.1 0 .8-.6.7-1.7-.2-1.4-1.2-1.6-1.2-.8 0zm47 82.1c.3.5.1 1-.4 1-.6 0-1.1-.5-1.1-1 0-.6.2-1 .4-1 .3 0 .8.4 1.1 1zM203 93.6c0 .8-1.9 1.3-2.4.6-.3-.5.1-.9.9-.9s1.5.2 1.5.3zm-.4 5.6c.1.4.2 1.2.3 1.8 0 .5.5 1 1 1s.7-1 .5-2.3c-.4-2-.4-2 .7.3.7 1.4 1.1 3.1 1 3.8-.1.7.5 1.5 1.4 1.8 1.4.6 1.4.8-.2 2-2.2 1.7-4.1 1.8-2.5.2.7-.7 1.2-1.6 1.2-2 0-.4-.8 0-1.8.9-1.5 1.5-1.6 2-.5 2.6.8.5 2 .3 2.9-.4 1.8-1.5 3.2-.3 3.9 3 .2 1.3 1.1 2.8 1.8 3.5 1.8 1.4 3 4.6 1.8 4.6-.5 0-1.1-.4-1.3-.9-.1-.5-1-.2-1.8.7-1.3 1.4-1.2 1.5.2 1 1.8-.8 6.1 1.9 5.3 3.3-.4.5 0 1.2.8 1.5.7.2 1.4 1.1 1.4 1.8 0 2.2 2.5 7.6 3.4 7.6.5 0 .9.7.9 1.5 0 .9.7 2.6 1.6 3.9 1.1 1.8 1.2 2.6.3 3.2-.8.4-.9.3-.5-.4.5-.8.1-1-1.1-.5-1.5.6-1.6.4-.5-.9 1.6-2-.3-3.7-2.1-1.9-.9.9-.7 1 .7.5 1.5-.6 1.7-.4 1 .7-1.3 2.1-1.4 3.8-.2 4.6.7.3.8.1.4-.5-.4-.7-.3-1.2.3-1.2s1.5 1 2.2 2.2c.9 1.7.9 2-.3 1.6-1-.4-1.4.1-1.4 1.7 0 1.3.4 2.1.8 1.9.5-.3.6-.9.3-1.4-.3-.4.2-1.1 1-1.4 1.3-.4 1.4-1 .5-2.6-.7-1.3-.7-2 0-2 .9 0 1.5 2.1 1.1 4.2 0 .5.3.8.8.8s1.2.7 1.5 1.6c.3.8.2 1.2-.4.9-.6-.3-1-.1-1 .4 0 .6.7 1.1 1.5 1.1s1.5.7 1.5 1.5c0 .9.7 2.7 1.6 4 .9 1.4 1.3 2.5.8 2.5-.4 0 .1.7 1.2 1.5 1 .8 1.5 1.5 1 1.5s-.1 1 1 2.2c1 1.2 1.3 1.8.7 1.4-.7-.4-1.3-.2-1.3.3 0 .6.7 1.1 1.5 1.1s1.5.7 1.5 1.5c0 .9.7 2.6 1.6 3.9 1.1 1.8 1.2 2.6.3 3.2-.8.4-.9.3-.5-.4.5-.8.2-1-.8-.6-.9.3-1.6 1-1.6 1.6 0 .5.5.6 1 .3.6-.3 1.3.1 1.6.9.3.9 1.1 1.6 1.6 1.6.6 0 .5-.6-.2-1.5-.9-1-.9-1.5-.1-1.5.6 0 1.1.4 1.1 1 0 2.2.2 2.6 2.3 4.9 1.2 1.3 1.7 2.1 1.1 1.8-1.2-.7-2.9 2.1-1.9 3.1.3.3.5 0 .5-.6 0-.7.5-1.2 1.1-1.2.5 0 .8.4.4.9-.3.5.2 1.6 1 2.4 1.7 1.8 2 4.3.5 5.2-.5.3-1 1.1-1 1.6 0 .6.5.7 1 .4.6-.3 1-.1 1 .4 0 .6.5 1.1 1.2 1.1.9 0 .9-.3 0-1.2-1.5-1.5-1.6-2.8-.2-2.8.6 0 1 .6 1 1.4 0 .8.7 2.2 1.6 3.1 1.5 1.4 1.4 1.5-1 1.1-1.5-.3-2.4-.1-2.1.4.3.4-.1 1.1-.7 1.3-.9.4-1 .6-.1.6.6.1 1.5-.4 1.8-.9.8-1.2 3.5.6 3.5 2.2 0 .7-.5.7-1.3 0-.9-.8-1.7-.8-2.7 0-1.2.8-1.2.9.2.4 1.9-.6 4.5 2.8 2.9 3.9-.5.3-1.2-.3-1.4-1.2-.4-1.4-.5-1.4-.6.3 0 1.2.6 2.4 1.4 2.8 2.1.8 1.8 2.1-.5 2.3-1.1.1-1.8-.2-1.5-.8.4-.5.1-.9-.5-.9-.7 0-.9.9-.5 2.2.6 2 .3 1.9-2-.7l-2.7-3 2.2 3.3c1.2 1.8 1.9 3.6 1.5 4-.4.4-1 .1-1.2-.6-.3-.6-.9-1.2-1.4-1.2-.6 0-.7.4-.4 1 .3.5.2 1-.4 1-.6 0-.9.6-.7 1.2.1.7.1 1-.1.5-.3-.4-1-.4-1.6 0-.6.4-.8 0-.4-1 .4-1.1.2-1.4-.8-1.1-.8.3-1.1 1.2-.8 2 .3.8 0 1.4-.7 1.4-.6 0-.8-.4-.5-1 .4-.6-.6-.7-2.6-.3-2.6.5-3 .3-2.4-.8.7-1.2.6-1.2-.7-.1-1.4 1.1-1.8 1-2.8-.5-.9-1.6-1-1.5-.5.7.6 2.4.5 2.4-.9.6-.9-1-1.3-2.3-1-2.7.3-.5 0-.9-.6-.9-.8 0-1 1-.6 2.7.3 1.6.3 2.3 0 1.7-.3-.7-1.4-1-2.4-.7-1.2.3-2 0-2-.6 0-.7-.5-.9-1-.6-.6.4-.7 1.1-.4 1.7.5.7.1.7-1.1.1-1-.6-2.6-.8-3.6-.6-1.1.3-1.9 0-1.9-.6 0-.7-.5-.9-1-.6-.6.4-.8 1.1-.5 1.6.4.5-.5.4-1.9-.2-2-1-2.3-1.5-1.5-2.6.7-.8.8-1.3.1-1.3-1.6 0-2.2 2.6-.9 3.9.9.9.8 1.1-.5.6-1-.4-1.8-1.1-1.8-1.7 0-.5-.5-.6-1-.3-.6.4-.7 1.1-.4 1.7.5.7.1.7-1.1.1-1-.6-2.6-.8-3.6-.6-1.1.3-1.9 0-1.9-.6 0-.7-.5-.9-1-.6-.6.4-.7 1.1-.4 1.7.4.7.2.8-.5.4-1.8-1.2-10.1-1.4-9.4-.3.3.6.1.7-.6.3-.6-.4-.9-1.6-.6-2.7.4-1.1.2-1.9-.5-1.9-.6 0-.8.4-.5 1 .3.5.2 1-.4 1-.6 0-.8.7-.5 1.5.4.8.1 1.5-.6 1.5-.6 0-.8-.4-.5-1 .4-.6-.6-.7-2.6-.3-2.6.5-3 .3-2.4-.8.7-1.2.6-1.2-.7-.1-1 .8-3.3 1.1-6.2.8-3.2-.3-4.4-.1-4 .7.3.7-.1.4-.9-.6-1.7-2-2.8-2.2-2.3-.5.1.7.1 1.1-.1.8-.2-.3-4.1-.5-8.8-.4-7.2.2-8.5-.1-8.3-1.4.2-.8-.2-1.7-.8-1.9-.7-.2-1.1.4-1 1.3 0 .9-.5 1.8-1.2 2-.7.1-.8 0-.2-.3.5-.2 1-.9 1-1.4 0-.6-.4-.8-.9-.5-.5.3-1.2-.1-1.5-1-.3-.8-.2-1.2.4-.9.5.3 1.8.1 2.8-.4 2.3-1.2 4.7.6 3.2 2.4-.6.8.2 1.1 3.1 1 2.1 0 3.9-.5 3.8-.9 0-.5.5-1.3 1.3-1.7.9-.6.9-.9.1-.9-.6 0-1.5.4-1.8 1-.3.5-1.1 1-1.7 1-.7 0-.6-.6.2-1.5.9-1 .9-1.5.1-1.5-.6 0-1.1.4-1.1.8 0 .5-.7.9-1.5.9-1 0-1.3-.6-1-1.7.3-1.1-.1-2-1.1-2.4-1.4-.5-1.5-.4-.5.8 1 1.2.9 1.5-.8 1.3-2.4-.2-2.4-.2-1-2.8.5-1.1 1.4-1.7 2-1.4.5.4.9.1.9-.4 0-.6-.4-1.1-1-1.1h-1.5c-.3 0-.4.2-.2.4.1.2-.6 1.3-1.6 2.3-.9 1.1-1.4 2.3-1 2.6.3.4.1.7-.5.7-1.5 0-1.6-1.7-.1-2.6.6-.3.9-1.5.6-2.5-.3-1 0-1.7.6-1.6.6.1 1.1-.4 1.2-1.2 0-.8.7-1.6 1.5-1.8 1.2-.4 1.2-.3.2.5-1.1.7-.9 1 .7 1.5 1.7.4 1.9.2 1.1-1.3-.5-1-1.5-2.1-2.2-2.3-.8-.3-.6-.6.5-.6 1-.1 1.7-.7 1.5-1.4-.4-2.4 1.4-5.9 2.8-5.3 1 .4 1.2.2.7-.7-1.5-2.4-1.1-3.6 1-3.4 1.2.1 2.2-.4 2.2-1.1 0-.7.7-1.7 1.5-2.2.8-.5 1.1-1 .5-1-2 0-3.7 1.8-3 3 .5.9.4 1.1-.3.6-1.6-.9-1.5-2.2.1-3.8.8-.7 1.7-2.6 2.1-4.1.3-1.5 1.1-2.7 1.7-2.7.8 0 .8.4.2 1.2-1.2 1.6-1.3 4.9-.1 4.2.5-.3.5-1 .2-1.6-.4-.6-.1-1.4.7-1.8 1-.7 1-1.2-.2-2.6-.8-1-.9-1.5-.3-1.1.7.4 1.5 0 1.8-.9.3-.8.2-1.3-.3-.9-1.6.9-.6-2.3 1.4-4.5 1-1.1 1.5-2 1.1-2-.4 0-.4-.6.1-1.3.4-.6.8-1.5.8-2 0-.9.6-1 2.8-.1 1 .3 2.1.4 2.4 0 .4-.3-.1-.6-1-.6s-1.7-.3-1.8-.8c0-.4-.2-1.5-.4-2.5-.2-.9 0-1.5.5-1.2 1.1.7 2.2-2.4 1.3-3.7-.3-.7-.1-.8.5-.4.7.4 1.2.2 1.2-.4 0-.6.5-.8 1.3-.4.7.5.6 0-.3-1.1-1.4-1.7-1.3-1.7 1-1s2.3.7.6-1c-1.6-1.7-1.6-1.9.5-4.1 1.2-1.3 2-2.7 1.6-3-.3-.4.1-1.3.9-2.1s1.2-1.8.9-2.3c-.3-.5 0-1.2.6-1.6.8-.4.9-.3.5.4s-.2 1.2.4 1.2c.6 0 .4 1.1-.6 2.5-1.5 2.3-1.5 2.5 0 1.9.9-.3 1.4-1 1.1-1.4-.3-.5-.1-1.1.4-1.5.7-.4.7-1.5 0-3.2-.7-2-.6-3 .6-4.3.8-.9 1.2-2 .8-2.5-.5-.4-.2-.5.5-.1.9.5 1.2.3 1.1-.5-.4-2 1.1-5.9 2.2-5.9 1.3 0 1.1 1.8-.3 2.3-1 .4-1 .6-.1.6 1.9.2 2.6-1.9 1.1-3.6-.8-1.1-.8-1.4-.1-1 .7.5 1.2.1 1.2-1 .2-5.2.3-5.4 2.3-3.6 1 .9 1.8 1.2 1.8.7s.5-.2 1.1.6c.9 1.3 1 1.3.6 0-.2-.8-1-1.5-1.8-1.5s-1.4-.9-1.5-2c0-2.5 2.3-7.5 3.6-7.5.5 0 .7-.9.5-2-.2-1.2 0-1.8.6-1.5.5.4.7 1 .4 1.5-.3.5.4 1.4 1.5 2 1.3.7 2 .7 2 0 0-.5-.7-1-1.7-1-.9 0-1.3-.3-1-.6.3-.4.2-1.5-.3-2.4-.7-1.4-.6-1.8.5-1.6.8.1 1.8.6 2.2 1.1.5.4.2.5-.6 0-.9-.5-.7.2.5 1.7 1 1.4 2.1 2.4 2.3 2.2.2-.2-.1-1-.7-1.7-.7-.8-.9-1.7-.5-2 .3-.4 1.1 0 1.7.9 1.1 1.4 1.5 1.3 3.6-.6 1.5-1.2 2-2.3 1.4-2.6-2.3-1-7.7-5.4-6.7-5.4.7 0 1.5.5 1.8 1 .4.6 1.1.7 1.7.4.7-.4.5-1-.6-1.6-.9-.5-1.6-1.4-1.6-1.9 0-1.2 3.4 2 3.6 3.3zm-1.3 3.8c2.5 0 3 1.8.8 2.9-1.6.9-2.1.7-2.6-1-.6-1.7-.9-1.9-1.6-.8-.7 1.1-.9 1-.9-.4 0-1-.4-1.5-1-1.2-.5.3-1 .2-1-.4 0-1.6 2.4-2 3.6-.5.6.8 1.8 1.4 2.7 1.4zm54.2 104c-.2 1.1-.1 2 .3 2s1.3 1 2.1 2.2c1.3 2.1 1.3 2.2-.2.9-1.2-.9-1.7-1-1.7-.2 0 .6.7 1.4 1.5 1.7 1.1.5 1.3 1 .5 1.9-.6.7-.7 1.5-.3 1.7.4.3.3.3-.4.2-.6-.2-1.4.2-1.6.9-.3.7-.4.2-.4-1 .1-1.2.5-1.9 1-1.6.5.3.7 0 .5-.8-.3-.8-1-1.3-1.6-1.2-.6.2-.9-.3-.6-1.1.3-.8 0-1.7-.5-2.1-.6-.3-.8-1.2-.4-1.8.4-.7.8-1.5.9-2 .3-1.5.4-1.7.8-1.7.3 0 .3.9.1 2zm-2 9.2c.2 2.1-.2 2.4-3.6 2.5-2.2.1-3.9-.3-3.9-.8 0-.6.4-.7 1-.4.5.3 1.8.1 2.7-.4 1-.6 1.4-1.1.9-1.1-.5 0-.3-.7.4-1.5 1.5-1.8 2.2-1.4 2.5 1.7zm-101-.2c.3.5.1 1-.4 1-.6 0-1.1-.5-1.1-1 0-.6.2-1 .4-1 .3 0 .8.4 1.1 1zm-19.1 40.5c.3.9 0 1.5-.9 1.5s-1.2-.6-.9-1.5c.4-.8.7-1.5.9-1.5.2 0 .5.7.9 1.5zm45.6-.5c0 .5-.4 1-1 1-.5 0-1-.5-1-1 0-.6.5-1 1-1 .6 0 1 .4 1 1zm12 0c0 .5-.4 1-1 1-.5 0-1-.5-1-1 0-.6.5-1 1-1 .6 0 1 .4 1 1zm4.1 1.3c-1 .9-1.1.8-.5-.6.3-1 .9-1.5 1.2-1.2.3.3 0 1.1-.7 1.8zm7.9-1.3c0 .5-.4 1-1 1-.5 0-1-.5-1-1 0-.6.5-1 1-1 .6 0 1 .4 1 1zm4.1 1.3c-1 .9-1.1.8-.5-.6.3-1 .9-1.5 1.2-1.2.3.3 0 1.1-.7 1.8zm7.9-1.3c0 .5-.4 1-1 1-.5 0-1-.5-1-1 0-.6.5-1 1-1 .6 0 1 .4 1 1zm4.1 1.3c-1 .9-1.1.8-.5-.6.3-1 .9-1.5 1.2-1.2.3.3 0 1.1-.7 1.8zm7.9-1.3c0 .5-.4 1-1 1-.5 0-1-.5-1-1 0-.6.5-1 1-1 .6 0 1 .4 1 1zm12 0c0 .5-.4 1-1 1-.5 0-1-.5-1-1 0-.6.5-1 1-1 .6 0 1 .4 1 1zm4.1 1.3c-1 .9-1.1.8-.5-.6.3-1 .9-1.5 1.2-1.2.3.3 0 1.1-.7 1.8zm7.9-1.3c0 .5-.4 1-1 1-.5 0-1-.5-1-1 0-.6.5-1 1-1 .6 0 1 .4 1 1zm14 .6c0 .8-.5 1.2-1 .9-.6-.4-.8-1.1-.5-1.6.9-1.4 1.5-1.1 1.5.7zm16 3.8c0 .2-.7.7-1.6 1-.8.3-1.2.2-.9-.4.6-1 2.5-1.4 2.5-.6zm-167.4 16.2c-.3.9-.6 1.8-.6 2 0 .2-.4.4-.9.4-.7 0-.8-1.7-.2-3.8.1-.1.6-.2 1.2-.2s.8.7.5 1.6zM48.5 324c-.3.5-1.1 1-1.6 1-.6 0-.7-.5-.4-1 .3-.6 1.1-1 1.6-1 .6 0 .7.4.4 1zm-8.8 17c-.1 1.1-.4 2-.8 2s-.6-1.1-.5-2.4c0-1.3.4-2.2.8-2 .4.2.6 1.3.5 2.4zm282.2 5.9c.9.6.6.8-1.3.8-1.4 0-2.3-.3-2-.8.7-1.1 1.5-1.1 3.3 0z"/><path d="M206 111.3c-1.4 1.2-2.1 1.8-1.4 1.4.7-.4 1.4-.3 1.6.2.1.6.8-.1 1.5-1.4.6-1.4 1-2.5 1-2.5-.1 0-1.3 1-2.7 2.3zM190.1 113.6c-.7 1.7-.7 2.2.4 2 .8-.1 1.8-.6 2.2-1.1.4-.4.2-.5-.4-.1-.7.4-1.3.2-1.3-.5 0-.6.8-.9 1.8-.7 1.1.3 1.9 0 1.9-.8 0-2.1-3.5-1.2-4.6 1.2zM209.3 115c.2.8 1.2 1.6 2.3 1.7 1.3.2 1.5.1.4-.4-.8-.3-1.9-1.1-2.3-1.7-.6-.7-.7-.6-.4.4zM207.5 118c-.3.5-.1 1 .4 1 .6 0 1.1-.5 1.1-1 0-.6-.2-1-.4-1-.3 0-.8.4-1.1 1zM187 122c0 .6.7 1 1.5 1s1.5-.2 1.5-.4-.7-.6-1.5-1c-.8-.3-1.5-.1-1.5.4zM211.5 124.6c-.9 1.5-1.2 2.3-.6 2 1.1-.7 3.5-4.6 2.8-4.6-.3 0-1.2 1.2-2.2 2.6zM214.6 123.9c-.3.5.2 1.5 1.2 2.2 1.5 1.2 1.6 1.2.5-.2-.7-.9-1-1.9-.6-2.2.3-.4.4-.7 0-.7-.3 0-.8.4-1.1.9zM187.5 125.1c-.4.6-.5 1.2-.2 1.5.2.3.7-.2 1-1.1.7-1.7.1-2-.8-.4zM213.3 127.5c0 .8.4 1.5.9 1.5.4 0 .8-.4.8-.9 0-.6-.4-1.2-.8-1.5-.5-.3-.9.1-.9.9zM216 130c-.6 1.1-.8 2-.6 2 .3 0 1-.9 1.6-2 .6-1.1.8-2 .6-2-.3 0-1 .9-1.6 2zM185.4 130.5c-.3.8-.4 2-.2 2.7.3.7.7.1 1-1.5.6-2.9.1-3.6-.8-1.2zM217.5 132c-.3.5-.1 1 .4 1 .6 0 1.1-.5 1.1-1 0-.6-.2-1-.4-1-.3 0-.8.4-1.1 1zM213.5 134c-.3.5-.1 1 .4 1 .6 0 1.1-.5 1.1-1 0-.6-.2-1-.4-1-.3 0-.8.4-1.1 1zM218.8 134.9c.8.4 1.3 1.1 1.3 1.5-.1.3.1.6.4.6h1.1c.4 0 .1-.7-.6-1.5s-1.8-1.5-2.4-1.5c-.7 0-.6.4.2.9zM180 135.4c0 .2.7.7 1.6 1 .8.3 1.2.2.9-.4-.6-1-2.5-1.4-2.5-.6zM179 137.4c0 .2.7.9 1.5 1.6 1.3 1.1 1.4 1 .9-.4-.5-1.4-2.4-2.3-2.4-1.2zM217.3 141.5c0 .8.4 1.2.9.9.5-.3.6-1 .3-1.5-.9-1.3-1.2-1.1-1.2.6zM173.4 149.5c-1 .8-1.4 1.5-.7 1.5.6 0 1.5-.5 1.8-1 .4-.6 1.1-.7 1.7-.4.7.4.8.2.4-.4-.9-1.5-.8-1.5-3.2.3zM226.1 150.7c-.1.6-.4 2-.7 3-.5 1.7-.5 1.7.6 0 .6-1 .9-2.3.6-3-.3-.9-.5-.9-.5 0zM175 151.9c0 .6.4 1.2.8 1.5.5.3.9-.1.9-.9s-.4-1.5-.9-1.5c-.4 0-.8.4-.8.9zM179 156c0 .5.5 1 1.1 1 .5 0 .7-.5.4-1-.3-.6-.8-1-1.1-1-.2 0-.4.4-.4 1zM226.6 155.8c-.3.4.4.9 1.5.9 2.3.2 2.5-.3.4-1-.8-.4-1.6-.3-1.9.1zM169.9 158.7c-1.2 1.6-1.2 1.7.2.6.9-.7 1.9-1 2.2-.6.4.3.7.1.7-.5 0-1.7-1.6-1.5-3.1.5zM230.6 159c.5.8.9 1.9.9 2.5.2 2 1.7 4.4 3.2 4.9 1.2.5 1.3.4.5-.7-.7-.8-.8-1.7-.4-2.1.4-.4 0-.6-.8-.4-.9.2-1.5-.4-1.5-1.4 0-1-.6-2.3-1.4-3-1.2-1.1-1.2-1-.5.2zM171 160.9c0 .7-.5.9-1.2.5-.7-.5-.8-.3-.3.5.5.9 1 1 1.8.2.6-.6.8-1.4.4-1.8-.4-.3-.7-.1-.7.6zM164.7 167.7c-.8.8.4 3.3 1.5 3.3.6 0 .5-.6-.2-1.5-1.4-1.7 0-2.1 1.6-.5.7.7 1.1.7 1.1-.3 0-1.3-3-2.1-4-1zM230.6 167.8c-.3.5.1.9.9.9s1.5-.4 1.5-.9c0-.4-.4-.8-.9-.8-.6 0-1.2.4-1.5.8zM236 171c-.8.5-1.1 1-.6 1 .5 0 .2.8-.5 1.7-1.2 1.6-1.2 1.7.1.6 1-.8 2.1-.9 3-.3 1.3.8 1.3 1 .1 1-.8 0-1.2.3-.8.6.3.3 1.1.3 1.8-.2.9-.5.7-1-.5-2-1-.7-1.5-1.7-1.1-2.3.8-1.3.4-1.4-1.5-.1zM162 172.5c-.9 1-.9 1.5-.1 1.5.6 0 1.1-.5 1.1-1.1 0-.5.5-.7 1.2-.3.7.4.8.3.4-.4-.9-1.5-1.1-1.5-2.6.3zM165.1 175.6c0 1.1.3 1.4.6.6.3-.7.2-1.6-.1-1.9-.3-.4-.6.2-.5 1.3zM162.7 176.9c-.4 1.7-.3 2.1.5 1.3.5-.5.8-1.6.6-2.3-.3-.8-.7-.3-1.1 1zM235.6 179.8c-.3.5.1.9.9.9s1.2-.4.9-.9c-.3-.4-.7-.8-.9-.8-.2 0-.6.4-.9.8zM239 182c0 .6.7 1 1.5 1s1.5-.2 1.5-.4-.7-.6-1.5-1c-.8-.3-1.5-.1-1.5.4zM243 184c0 .5.5 1 1.1 1 .5 0 .7-.5.4-1-.3-.6-.8-1-1.1-1-.2 0-.4.4-.4 1zM239.4 185.8c.4.3 1.4.7 2.2.8.9.1 1.3 0 1-.4-.4-.3-1.4-.7-2.2-.8-.9-.1-1.3 0-1 .4zM241.5 190.9c-.3.5-.2 1.2.3 1.5.5.3.9-.1.9-.9 0-1.7-.3-1.9-1.2-.6zM244.6 191.7c-.6 1.4-.5 1.5.5.6.7-.7 1-1.5.7-1.8-.3-.3-.9.2-1.2 1.2zM246.5 193.1c-.4.6-.5 1.2-.2 1.5.2.3.7-.2 1-1.1.7-1.7.1-2-.8-.4zM155.5 194.1c-1.1 1.6-.1 1.9 1.3.3.7-.8.8-1.4.3-1.4s-1.3.5-1.6 1.1zM151.9 196.2c-.6 1.4-.5 6.8.1 6.8.5 0 .7-1.4.5-3.1-.3-2.4-.1-3 1.1-2.5.8.3 1.2.2.9-.4-.6-.9-2.3-1.4-2.6-.8zM151.1 208.6c0 1.1.3 1.4.6.6.3-.7.2-1.6-.1-1.9-.3-.4-.6.2-.5 1.3zM153 211c-.9.6-1 1-.3 1 .6 0 1.5-.5 1.8-1 .8-1.2.4-1.2-1.5 0zM159.6 211.9c-.3.5.2 1.5 1.2 2.2 1.5 1.2 1.6 1.2.5-.2-.7-.9-1-1.9-.6-2.2.3-.4.4-.7 0-.7-.3 0-.8.4-1.1.9zM227.3 212.5c0 .8.4 1.2.9.9.5-.3.6-1 .3-1.5-.9-1.3-1.2-1.1-1.2.6zM233 211.9c0 .6.4 1.3 1 1.6.6.3.7-.1.4-.9-.7-1.8-1.4-2.1-1.4-.7zM163 212.4c0 .2.8 1 1.8 1.7 1.5 1.3 1.6 1.2.3-.4s-2.1-2.1-2.1-1.3zM211 212.4c0 .2.8 1 1.8 1.7 1.5 1.3 1.6 1.2.3-.4s-2.1-2.1-2.1-1.3zM243.5 213c-.4.6-1.1.7-1.7.4-.7-.4-.8-.2-.4.4.7 1.2 3.6.5 3.6-.9 0-1.2-.7-1.1-1.5.1zM172.5 214c-.3.6.1.7.9.4 1.8-.7 2.1-1.4.7-1.4-.6 0-1.3.4-1.6 1zM192 214.5c-.7.8-.9 1.5-.4 1.5s.2.5-.6 1c-1.2.7-1 .9.7.7 1.5-.1 1.9-.5 1.3-1.2-.6-.7-.5-1.6.2-2.3.7-.7.9-1.2.6-1.2-.3 0-1.1.7-1.8 1.5zM223 213.4c0 .2.7.7 1.6 1 .8.3 1.2.2.9-.4-.6-1-2.5-1.4-2.5-.6zM239 213.9c0 .6.4 1.3 1 1.6.6.3.7-.1.4-.9-.7-1.8-1.4-2.1-1.4-.7zM195.3 215.7c0 .7.4 1.3.7 1.3.4 0 1.2-.6 1.8-1.3.8-1 .6-1.3-.7-1.3-1 0-1.8.6-1.8 1.3zM162 216c-.9.6-1 1-.3 1 .6 0 1.5-.5 1.8-1 .8-1.2.4-1.2-1.5 0zM169 216c0 .6.4.9.9.6.5-.4 1.2-.1 1.4.4.3.6.4.5.3-.2-.3-1.5-2.6-2.3-2.6-.8zM174 216.7c-1.3 1.5-1.2 1.6.4 1 1-.4 2-.7 2.2-.7.2 0 .4-.5.4-1 0-1.5-1.3-1.2-3 .7zM180.5 216.1c-.4.6-.4 1.3-.1 1.6.3.4.6.1.6-.6s.5-.9 1-.6c.6.3 1 .1 1-.4 0-1.4-1.7-1.4-2.5 0zM200.5 215.9c-.3.5-.2 1.2.3 1.5.5.3.9-.1.9-.9 0-1.7-.3-1.9-1.2-.6zM203 216c0 .5.5 1 1.1 1 .5 0 .7-.5.4-1-.3-.6-.8-1-1.1-1-.2 0-.4.4-.4 1zM215 215.5c0 .2.6.8 1.3 1.4 1 .8 1.4.7 1.4-.2 0-.8-.6-1.4-1.4-1.4-.7 0-1.3.1-1.3.2zM219 216c0 .5.5 1 1.1 1 .5 0 .7-.5.4-1-.3-.6-.8-1-1.1-1-.2 0-.4.4-.4 1zM223.6 216.3c.3 1 .9 1.5 1.2 1.2.3-.3 0-1.1-.7-1.8-1-.9-1.1-.8-.5.6zM236.1 216.6c0 1.1.3 1.4.6.6.3-.7.2-1.6-.1-1.9-.3-.4-.6.2-.5 1.3zM251.6 216.7c-.6 1.4-.5 1.5.5.6.7-.7 1-1.5.7-1.8-.3-.3-.9.2-1.2 1.2zM207 11.5c0 .5.5 1.7 1 2.5s1 1 1 .5c0-.6-.5-1.7-1-2.5s-1-1.1-1-.5zM215.5 12.9c-.3.5-.2 1.2.3 1.5.5.3.9-.1.9-.9 0-1.7-.3-1.9-1.2-.6zM185.5 18c-.3.5-.1 1 .4 1 .6 0 1.1-.5 1.1-1 0-.6-.2-1-.4-1-.3 0-.8.4-1.1 1zM217.6 21.8c-.2.4-.1 1.4.4 2.2.7 1.1.9.9.7-.8-.1-2.4-.3-2.6-1.1-1.4zM185.4 24.7c.2 1 .6 1.7 1 1.6 1.5-.3 1.6-1.1.2-2.2-1.2-1-1.4-.9-1.2.6zM183.3 28.8c-.1 2.2 0 2.4.9.8.6-1 .6-2.2.2-2.6-.5-.5-1 .3-1.1 1.8zM215.5 29c-.3.5-.1 1 .4 1 .6 0 1.1-.5 1.1-1 0-.6-.2-1-.4-1-.3 0-.8.4-1.1 1zM218.8 30.7c.7.3 1.6.2 1.9-.1.4-.3-.2-.6-1.3-.5-1.1 0-1.4.3-.6.6zM177.6 33.9c-.3.4.6.8 2 .9 1.3.1 2.4 0 2.4-.2 0-.7-4-1.4-4.4-.7zM218.9 34.7c-1.3 1.6-1.2 1.7.4.4.9-.7 1.7-1.5 1.7-1.7 0-.8-.8-.3-2.1 1.3zM220.6 35.8l-1.9 2.7 2.4-2.2c1.2-1.2 2.1-2.4 1.8-2.7-.2-.2-1.3.8-2.3 2.2zM221.4 38.1c-.3.6-.2 1.5.3 2s.9.1 1-1.1c.2-2.2-.2-2.5-1.3-.9zM175.5 40.3c.1 1.2-.3 2.9-.8 3.7-.9 1.2-.9 1.3.3.3 1.6-1.5 2.3-5 1.2-5.7-.5-.3-.8.5-.7 1.7zM178.6 40.8c-.3.5.1.9.9.9s1.2-.4.9-.9c-.3-.4-.7-.8-.9-.8-.2 0-.6.4-.9.8zM222.8 42.7c.7.3 1.6.2 1.9-.1.4-.3-.2-.6-1.3-.5-1.1 0-1.4.3-.6.6zM170.7 50.1c.7.7 1.5 1 1.8.7.3-.3-.2-.9-1.2-1.2-1.4-.6-1.5-.5-.6.5zM229 52.9c0 .6.4 1.3 1 1.6.6.3.7-.1.4-.9-.7-1.8-1.4-2.1-1.4-.7zM231.6 53.3c.3 1 .9 1.5 1.2 1.2.3-.3 0-1.1-.7-1.8-1-.9-1.1-.8-.5.6zM172.5 54c.3.5.8 1 1.1 1 .2 0 .4-.5.4-1 0-.6-.5-1-1.1-1-.5 0-.7.4-.4 1zM167.6 56.2c.3.4.9.8 1.5.8.5 0 .9-.4.9-.8 0-.5-.7-.9-1.5-.9s-1.2.4-.9.9zM227.5 56c.3.5 1.1 1 1.6 1 .6 0 .7-.5.4-1-.3-.6-1.1-1-1.6-1-.6 0-.7.4-.4 1zM231.7 56.7c-1 .9-.9 2.3.1 2.3.5 0 .9-.7.9-1.5 0-1.7-.1-1.8-1-.8zM167.5 60c-.3.6.1.7.9.4 1.8-.7 2.1-1.4.7-1.4-.6 0-1.3.4-1.6 1zM169.8 61.3c-.7.8-2 1.2-2.8.9-.9-.3-.8.1.4 1 1.3 1 1.5 1.7.8 2.2-.7.4-1.2 1.2-1.2 1.9 0 1.1 3.5-3.2 3.5-4.3 0-.3.4-1.1.8-1.8 1.1-1.6.2-1.5-1.5.1zM234 64c0 .5.5 1 1 1 .6 0 1-.5 1-1 0-.6-.4-1-1-1-.5 0-1 .4-1 1zM161.7 66.5c-.4.8-.3 1.6.1 1.9.4.3.9-.4.9-1.5.2-2.3-.3-2.5-1-.4zM165.1 68.6c0 1.1.3 1.4.6.6.3-.7.2-1.6-.1-1.9-.3-.4-.6.2-.5 1.3zM164 71.9c0 .6.4 1.3 1 1.6.6.3.7-.1.4-.9-.7-1.8-1.4-2.1-1.4-.7zM237.7 72.1c.7.7 1.5 1 1.8.7.3-.3-.2-.9-1.2-1.2-1.4-.6-1.5-.5-.6.5zM160.5 74.3c-1.5 1.2-1.6 1.5-.4 2.2.8.5 1.1.5.7 0-.4-.4 0-1.4 1-2.1 2.3-1.8 1.1-1.8-1.3-.1zM240 74c-1.2.7-1 .9.7.7 1.2 0 1.9-.5 1.7-.9-.6-1-.6-1-2.4.2zM242 82.5c0 .5.5 1.7 1 2.5s1 1 1 .5c0-.6-.5-1.7-1-2.5s-1-1.1-1-.5zM157 84c0 .5.5 1 1.1 1 .5 0 .7-.5.4-1-.3-.6-.8-1-1.1-1-.2 0-.4.4-.4 1zM245.3 84.5c0 .8.4 1.2.9.9.5-.3.6-1 .3-1.5-.9-1.3-1.2-1.1-1.2.6zM244.6 88.2c.3.4.9.8 1.5.8.5 0 .9-.4.9-.8 0-.5-.7-.9-1.5-.9s-1.2.4-.9.9zM153.4 90.2c.3 1-.1 1.8-1.2 2.1-1.6.4-1.6.5 0 .6 2.2.1 2.9-1.1 1.6-2.9-.8-1.2-.9-1.2-.4.2zM146.6 94.2c.3.5 1 .6 1.5.3 1.3-.9 1.1-1.2-.6-1.2-.8 0-1.2.4-.9.9zM251.3 95.7c.4.3.1 1.3-.6 2.2-1.1 1.4-1 1.4.5.2 1.6-1.2 1.6-3.1.1-3.1-.4 0-.3.3 0 .7zM152 96.8c0 .8-.5 1-1.2.6-1-.5-1-.4-.1.6.6.7.9 1.9.6 2.6-.8 2 .5 1.7 1.6-.4.6-1.1.6-2.4 0-3.3-.6-1-.9-1.1-.9-.1zM145.6 103.8c-.3.5.1.9.9.9s1.2-.4.9-.9c-.3-.4-.7-.8-.9-.8-.2 0-.6.4-.9.8zM255.3 104.5c0 .8.4 1.2.9.9.4-.3.8-.9.8-1.5 0-.5-.4-.9-.8-.9-.5 0-.9.7-.9 1.5zM252.2 106.6c-.7.8-.8 1.4-.3 1.4 1 0 2.5-1.9 2-2.5-.2-.1-1 .3-1.7 1.1zM145.7 108c.3 1.1.9 2.2 1.3 2.5.5.3.6-.4.3-1.5s-.9-2.2-1.3-2.5c-.5-.3-.6.4-.3 1.5zM255.6 110.5c-.9 2.6-.7 3.2.5 1.2.6-1 .9-2.1.6-2.3-.2-.3-.7.2-1.1 1.1zM257 112.9c0 .6.4 1.3 1 1.6.6.3.7-.1.4-.9-.7-1.8-1.4-2.1-1.4-.7zM139.5 116c-.3.5-.1 1 .4 1 .6 0 1.1-.5 1.1-1 0-.6-.2-1-.4-1-.3 0-.8.4-1.1 1zM259.7 119.3c-1.2 1.9-1.3 2.4-.2 2.4.8 0 1.4-.3 1.3-.6-.2-2.1.4-3.1 1.4-2.5.7.4.8.3.4-.4-1-1.6-1.1-1.5-2.9 1.1zM138.6 121.8c-.3.4.4.9 1.5.9 2.3.2 2.5-.3.4-1-.8-.4-1.6-.3-1.9.1zM260.7 124.4c-.4 1-.1 1.3.9.9 1.5-.6 1.9-2.3.5-2.3-.5 0-1.1.7-1.4 1.4zM137.5 124.9c-.3.5 0 1.3.6 1.7.7.4.9.3.5-.4-.3-.5 0-1.3.6-1.5.9-.4 1-.6.1-.6-.6-.1-1.4.3-1.8.8zM265 126c0 .5.5 1 1.1 1 .5 0 .7-.5.4-1-.3-.6-.8-1-1.1-1-.2 0-.4.4-.4 1zM135.9 127.2c-.6 2.1-.5 3.8.1 3.8.5 0 .8-.9.7-2-.1-1.7-.5-2.6-.8-1.8zM133.6 132.4c.6 1.5.4 1.7-.6 1.1-.9-.6-1.1-.4-.5.4.5.9 1 1 1.8.2s.7-1.4-.2-2.4c-1-1-1.1-.8-.5.7zM266.8 132.2c1 1.3 1 1.7 0 2.1-.7.3-.3.5.9.3 1.2-.1 2.5-.5 2.8-.9.3-.4.2-.5-.2-.2-.3.3-1.6-.3-2.7-1.2-1.7-1.5-1.8-1.5-.8-.1zM127.6 138.2c.3.5 1 .6 1.5.3 1.3-.9 1.1-1.2-.6-1.2-.8 0-1.2.4-.9.9zM131.5 139.5c.1 1.5-.4 2.9-1.2 3.4-1.3.7-1.3.9.1 1.4.9.4 1.5.3 1.5-.1-.1-.4-.1-.9.1-1.2.7-1.9.7-6 0-6-.4 0-.7 1.1-.5 2.5zM272.6 142.2c.3.5 1 .6 1.5.3 1.3-.9 1.1-1.2-.6-1.2-.8 0-1.2.4-.9.9zM123.5 143.9c-.3.5-.2 1.2.3 1.5.5.3.9-.1.9-.9 0-1.7-.3-1.9-1.2-.6zM127.8 145.7c.7.3 1.6.2 1.9-.1.4-.3-.2-.6-1.3-.5-1.1 0-1.4.3-.6.6zM124.5 150.3c-1.5 1.2-1.6 1.5-.4 2.2.8.5 1.1.5.7 0-.4-.4 0-1.4 1-2.1 2.3-1.8 1.1-1.8-1.3-.1zM271.5 150c.3.5.8 1 1.1 1 .2 0 .4-.5.4-1 0-.6-.5-1-1.1-1-.5 0-.7.4-.4 1zM125.5 154c-.3.5-.2 1 .4 1 .5 0 1.3-.5 1.6-1 .3-.6.2-1-.4-1-.5 0-1.3.4-1.6 1zM123.1 155.6c0 1.1.3 1.4.6.6.3-.7.2-1.6-.1-1.9-.3-.4-.6.2-.5 1.3zM122.7 158.7c-1 1-.8 2.3.4 2.3.5 0 .8-.4.5-.9-.4-.5 0-1.2.6-1.4.7-.3.8-.6.2-.6-.6-.1-1.4.2-1.7.6zM119.9 159.2c-.6 2.1-.5 3.8.1 3.8.5 0 .8-.9.7-2-.1-1.7-.5-2.6-.8-1.8zM281.6 164.2c.3.5 1 .6 1.5.3 1.3-.9 1.1-1.2-.6-1.2-.8 0-1.2.4-.9.9zM113.6 168.2c.3.5 1 .6 1.5.3 1.3-.9 1.1-1.2-.6-1.2-.8 0-1.2.4-.9.9zM113.5 171.1c-.4.6-.5 1.2-.2 1.5.2.3.7-.2 1-1.1.7-1.7.1-2-.8-.4zM289 173.9c0 .6.4 1.3 1 1.6.6.3.7-.1.4-.9-.7-1.8-1.4-2.1-1.4-.7zM113 176c0 .5.5 1 1 1 .6 0 1-.5 1-1 0-.6-.4-1-1-1-.5 0-1 .4-1 1zM284.6 176.6c-.3.8-.2 1.2.4.9.6-.3 1.3.1 1.6.9.3.9 1.4 1.6 2.3 1.5 1 0 1.1-.2.3-.6-.6-.2-1-.9-.6-1.4.3-.5 0-.8-.8-.7-.7.2-1.2-.3-1-1 .3-1.7-1.5-1.5-2.2.4zM287.6 181.8c-.2.4-.1 1.4.4 2.2.7 1.1.9.9.7-.8-.1-2.4-.3-2.6-1.1-1.4zM111 183.9c0 .6.4 1.2.8 1.5.5.3.9-.1.9-.9s-.4-1.5-.9-1.5c-.4 0-.8.4-.8.9zM291 185c-.9.6-1 1-.3 1 .6 0 1.5-.5 1.8-1 .8-1.2.4-1.2-1.5 0zM107.6 186.3c.3 1 .9 1.5 1.2 1.2.3-.3 0-1.1-.7-1.8-1-.9-1.1-.8-.5.6zM108.6 190.4c.6 1.5.4 1.7-.6 1.1-.9-.6-1.1-.4-.5.4.5.9 1 1 1.8.2s.7-1.4-.2-2.4c-1-1-1.1-.8-.5.7zM292.6 191.7c-.6 1.4-.5 1.5.5.6.7-.7 1-1.5.7-1.8-.3-.3-.9.2-1.2 1.2zM101.6 193.8c-.3.4.4.9 1.5.9 2.3.2 2.5-.3.4-1-.8-.4-1.6-.3-1.9.1zM299.4 195.2l-1.9 2.3 2.3-1.9c1.2-1.1 2.2-2.1 2.2-2.3 0-.8-.8-.2-2.6 1.9zM295.7 195.7c-.4.3-.7 1.1-.7 1.7 0 .6.5.5 1.2-.2.6-.6.9-1.4.7-1.7-.3-.3-.9-.2-1.2.2zM297.6 199.3c.3 1 .9 1.5 1.2 1.2.3-.3 0-1.1-.7-1.8-1-.9-1.1-.8-.5.6zM100.5 200c-.5.8 4.2.7 4.9-.1.3-.3-.6-.5-2-.5s-2.7.3-2.9.6zM295.6 200.3c.3 1 .9 1.5 1.2 1.2.3-.3 0-1.1-.7-1.8-1-.9-1.1-.8-.5.6zM97.3 203.5c0 .8.4 1.2.9.9.5-.3.6-1 .3-1.5-.9-1.3-1.2-1.1-1.2.6zM298.8 202.7c.7.3 1.6.2 1.9-.1.4-.3-.2-.6-1.3-.5-1.1 0-1.4.3-.6.6zM99.3 205.7c.4.3-.1 1.6-1 2.7-1.8 2.1-1.8 2.1.5.2 2.4-2.1 2.9-3.6 1-3.6-.6 0-.8.3-.5.7zM299.5 206c-.3.5-.2 1.7.3 2.6.8 1.4 1 1.2 1-.9 0-2.9-.3-3.3-1.3-1.7zM302.8 210.7c.7.3 1.6.2 1.9-.1.4-.3-.2-.6-1.3-.5-1.1 0-1.4.3-.6.6zM303 212.4c0 .3.9 1 2 1.6 1.1.6 2 .8 2 .6 0-.3-.9-1-2-1.6-1.1-.6-2-.8-2-.6zM95 214c0 .4.7.7 1.5.6 2.3-.3 2.6-1.2.5-1.3-1.1-.1-2 .2-2 .7zM302.2 214.6c1 1 2 1.6 2.2 1.3.3-.3-.5-1.1-1.7-1.8-2.1-1.3-2.1-1.2-.5.5zM91.9 219.2c-.8 2.7-.5 3.6.9 3 1-.4 1.2-.7.4-1-.7-.2-1-.8-.6-1.3.3-.5.3-.9 0-.9s-.6.1-.7.2zM307.7 219.7c-1 .9-.9 2.3.1 2.3.5 0 .9-.7.9-1.5 0-1.7-.1-1.8-1-.8zM92.2 224.6c-.7.8-.8 1.4-.3 1.4 1 0 2.5-1.9 2-2.5-.2-.1-1 .3-1.7 1.1zM313 225.9c0 .6.4 1.3 1 1.6.6.3.7-.1.4-.9-.7-1.8-1.4-2.1-1.4-.7zM314.6 234.2c.3.5 1 .6 1.5.3 1.3-.9 1.1-1.2-.6-1.2-.8 0-1.2.4-.9.9zM313.5 237.9c-.6 1.1 1.3 2.6 2.2 1.7.4-.3.1-.6-.6-.6s-.9-.5-.6-1c.3-.6.4-1 .1-1-.3 0-.7.4-1.1.9zM82 241.4c0 .2.7.7 1.6 1 .8.3 1.2.2.9-.4-.6-1-2.5-1.4-2.5-.6zM79.9 245.1l-2.4 2 2.8-1.7c1.5-.9 2.7-1.8 2.7-2 0-.8-.8-.4-3.1 1.7zM321.2 246c.2.8-.3 1.4-1 1.2-.8-.1-1.1.2-.8.7.4.5 0 1.2-.6 1.4-.8.3-.6.6.5.6.9.1 1.7-.4 1.7-1 0-.5.4-.8.9-.5 1.1.7.8-2-.3-3.1-.4-.4-.6-.1-.4.7zM79 249c-1.3.8-1.2 1 .3 1 .9 0 1.7-.5 1.7-1 0-1.2-.1-1.2-2 0zM75.5 251.1c-.4.6-.5 1.2-.2 1.5.2.3.7-.2 1-1.1.7-1.7.1-2-.8-.4zM321 252.2c0 .4.4.8.9.8.6 0 1.2-.4 1.5-.8.3-.5-.1-.9-.9-.9s-1.5.4-1.5.9zM323.3 254.5c-.3.9-.3 1.8-.1 2.1.3.3.8-.4 1.1-1.6.6-2.3-.1-2.7-1-.5zM76.7 255.4c-.3.8 0 1.7.7 1.9 1 .4 1.2-.1.9-1.4-.6-2.3-.9-2.4-1.6-.5zM325.4 256.4c.1.8.5 1.8.8 2.2.4.3.5-.1.4-1-.1-.8-.5-1.8-.8-2.2-.4-.3-.5.1-.4 1zM137.7 256.7c-.4.3-.7 1.1-.7 1.7 0 .6.5.5 1.2-.2.6-.6.9-1.4.7-1.7-.3-.3-.9-.2-1.2.2zM140.5 257c-.8 1.3-1.6 5.4-.9 4.7.3-.3.6-.9.6-1.4 0-.4.4-1.6.9-2.6 1-1.8.5-2.4-.6-.7zM143.5 257c-.3.5-.1 1 .4 1 .6 0 1.1-.5 1.1-1 0-.6-.2-1-.4-1-.3 0-.8.4-1.1 1zM147 256.9c0 .5.7 1.2 1.6 1.5 1.4.5 1.5.4.4-.9-1.4-1.7-2-1.9-2-.6zM150.7 257.7c.3.7.9 1.3 1.3 1.3s1-.6 1.3-1.3c.3-.7-.3-1.3-1.3-1.3s-1.6.6-1.3 1.3zM155.5 257c-.3.5-.1 1 .4 1 .6 0 1.1-.5 1.1-1 0-.6-.2-1-.4-1-.3 0-.8.4-1.1 1zM159 256.9c0 .5.7 1.2 1.6 1.5 1.4.5 1.5.4.4-.9-1.4-1.7-2-1.9-2-.6zM162.7 257.7c.3.7.9 1.3 1.3 1.3s1-.6 1.3-1.3c.3-.7-.3-1.3-1.3-1.3s-1.6.6-1.3 1.3zM167.5 257c-.3.5-.1 1 .4 1 .6 0 1.1-.5 1.1-1 0-.6-.2-1-.4-1-.3 0-.8.4-1.1 1zM170.4 257.2c-.4.7-.4 1 .1.6.4-.4 1.5-.2 2.4.5 1.4 1.1 1.4 1 .2-.6-1.6-2-1.8-2.1-2.7-.5zM73 258.1c0 .5.5.7 1 .4.6-.3 1-.8 1-1.1 0-.2-.4-.4-1-.4-.5 0-1 .5-1 1.1zM75.7 258.7c-1 .9-.9 2.3.1 2.3.5 0 .9-.7.9-1.5 0-1.7-.1-1.8-1-.8zM197.1 258.9c-.8.5-.9 1.1-.3 1.5.5.3 1.2-.1 1.6-.9.6-1.7.6-1.8-1.3-.6zM208.4 259.6c-1.8 1.4-1.8 1.5.4.4 1.2-.6 2.2-1.3 2.2-1.5 0-.8-.5-.6-2.6 1.1zM220.6 259.3c-1.6 1.2-1.6 1.3.2 1.3 1 0 1.9-.6 1.9-1.3 0-.7-.1-1.3-.2-1.3s-.9.6-1.9 1.3zM245.1 258.9c-.8.5-.9 1.1-.3 1.5.5.3 1.2-.1 1.6-.9.6-1.7.6-1.8-1.3-.6zM322.7 259.5c.3.8.9 1.2 1.4.9 1.2-.7 1.1-1.1-.5-1.7-1-.4-1.3-.1-.9.8zM142.8 259.7c.6.3.9 1 .5 1.6-.5.9-.3.9.8 0 .8-.6 1.7-1.1 2.1-1 .3.1.9 0 1.1-.3.3-.3-.9-.6-2.6-.6-1.8-.1-2.6.1-1.9.3zM154 260.1c0 .5.5.7 1 .4.6-.3 1-.8 1-1.1 0-.2-.4-.4-1-.4-.5 0-1 .5-1 1.1zM157.6 260.2c.3.5 1 .6 1.5.3 1.3-.9 1.1-1.2-.6-1.2-.8 0-1.2.4-.9.9zM166.8 259.7c.6.3.9 1 .5 1.6-.5.9-.3.9.8 0 .8-.6 1.7-1.1 2.1-1 .3.1.9 0 1.1-.3.3-.3-.9-.6-2.6-.6-1.8-.1-2.6.1-1.9.3zM175 260c0 .5.5 1 1 1 .6 0 1-.5 1-1 0-.6-.4-1-1-1-.5 0-1 .4-1 1zM187.5 259.9c-.3.5-.2 1.2.3 1.5.5.3.9-.1.9-.9 0-1.7-.3-1.9-1.2-.6zM211.5 259.9c-.3.5-.2 1.2.3 1.5.5.3.9-.1.9-.9 0-1.7-.3-1.9-1.2-.6zM235.5 259.9c-.3.5-.2 1.2.3 1.5.5.3.9-.1.9-.9 0-1.7-.3-1.9-1.2-.6zM256 260c-.9.6-1 1-.3 1 .6 0 1.5-.5 1.8-1 .8-1.2.4-1.2-1.5 0zM259 260c0 .5.5 1 1.1 1 .5 0 .7-.5.4-1-.3-.6-.8-1-1.1-1-.2 0-.4.4-.4 1zM72.2 262.2c-.7.7-1.2 1.7-1.2 2.2 0 .6.5.4 1-.4.6-1 1-1.1 1-.3 0 .7.4 1.3.9 1.3.9 0 .9-2.5 0-3.5-.3-.2-1.1.1-1.7.7zM274 262.4c0 .2.7.7 1.6 1 .8.3 1.2.2.9-.4-.6-1-2.5-1.4-2.5-.6zM327 264.1c0 .5.5.7 1 .4.6-.3 1-.8 1-1.1 0-.2-.4-.4-1-.4-.5 0-1 .5-1 1.1zM329.9 264.7c-1.3 1.6-1.2 1.7.4.4 1.6-1.3 2.1-2.1 1.3-2.1-.2 0-1 .8-1.7 1.7zM273.7 265.7c-.3.5.8.8 2.3.8 1.5 0 2.6-.3 2.3-.8-.2-.4-1.3-.7-2.3-.7-1 0-2.1.3-2.3.7zM326.7 267.1c.7.7 1.5 1 1.8.7.3-.3-.2-.9-1.2-1.2-1.4-.6-1.5-.5-.6.5zM69 268.5c0 .8.2 1.5.4 1.5s.6-.7 1-1.5c.3-.8.1-1.5-.4-1.5-.6 0-1 .7-1 1.5zM123 268.1c0 .5.5.7 1 .4.6-.3 1-.8 1-1.1 0-.2-.4-.4-1-.4-.5 0-1 .5-1 1.1zM279.5 268c-1.6.7-1.7.9-.3.9.9.1 2-.4 2.3-.9.7-1.1.7-1.1-2 0zM329 271.5c0 .2 1 1 2.3 1.6 2 1.1 2.1 1.1.8-.4-1.3-1.6-3.1-2.3-3.1-1.2zM65.5 273.1c-.4.6-.5 1.2-.2 1.5.2.3.7-.2 1-1.1.7-1.7.1-2-.8-.4zM67.6 274.6c-.8 2-.8 2.4.2 2.4.4 0 .8-.9.9-2 .2-2.4-.3-2.6-1.1-.4zM284 275c-.8.5-1.2 1.1-1 1.4.3.2 1.4-.2 2.4-1 2.2-1.5 1-1.9-1.4-.4zM335 276.1c0 .5.5.7 1 .4.6-.3 1-.8 1-1.1 0-.2-.4-.4-1-.4-.5 0-1 .5-1 1.1zM64 278.5c-.9 1-.9 1.5-.1 1.5.6 0 1.1-.5 1.1-1.1 0-.5.5-.7 1.2-.3.7.4.8.3.4-.4-.9-1.5-1.1-1.5-2.6.3zM115.3 279.5c0 .8.4 1.2.9.9.5-.3.6-1 .3-1.5-.9-1.3-1.2-1.1-1.2.6zM66.6 280.5c-1.1.8-1.7 1.7-1.4 2 .2.3 1.3-.4 2.3-1.5 2.1-2.3 1.8-2.5-.9-.5zM281.6 279.8c-.3.5.1.9.9.9s1.2-.4.9-.9c-.3-.4-.7-.8-.9-.8-.2 0-.6.4-.9.8zM287 280c0 .5.5 1 1.1 1 .5 0 .7-.5.4-1-.3-.6-.8-1-1.1-1-.2 0-.4.4-.4 1zM333 280.5c0 .8.2 1.5.4 1.5s.6-.7 1-1.5c.3-.8.1-1.5-.4-1.5-.6 0-1 .7-1 1.5zM335.5 281c-.3.5-.3 1 .2 1 .4 0 .1.5-.7 1.1-1.2.8-1.2 1-.1.7.8-.2 1.5-1.2 1.7-2.1.3-1.9-.2-2.2-1.1-.7zM111.8 281.7c.7.3 1.6.2 1.9-.1.4-.3-.2-.6-1.3-.5-1.1 0-1.4.3-.6.6zM59.5 283.9c-.3.5-.2 1.2.3 1.5.5.3.9-.1.9-.9 0-1.7-.3-1.9-1.2-.6zM62.4 285.8c.3.5.1 1.2-.6 1.4-.8.3-.9.6-.1 1.1.6.4 1.3 0 1.7-.8.3-.8 0-1.7-.6-2.1-.6-.4-.8-.3-.4.4zM113 286.1c0 .5.5.7 1 .4.6-.3 1-.8 1-1.1 0-.2-.4-.4-1-.4-.5 0-1 .5-1 1.1zM289.7 291.1c.4 1.3.8 1.8 1.1 1 .2-.7-.1-1.8-.6-2.3-.8-.8-.9-.4-.5 1.3zM106.2 292.7c-1.5 1.3-1.5 1.3.3.5 1.1-.6 2.4-1 2.8-1 1.6 0 1.7-.9.2-.9-.9 0-2.3.7-3.3 1.4zM343.5 293.1c-.4.6-.5 1.2-.2 1.5.2.3.7-.2 1-1.1.7-1.7.1-2-.8-.4zM107.2 294.9c-1.1.6-1 1 0 1.9 1.1.8 1.4.7 1.4-.9 0-1 0-1.9-.1-1.9 0 0-.6.4-1.3.9zM291.4 295.1c-.3.6-.1 1.6.6 2.2 1 .9 1.1.9.5-.2-.4-.8-.2-1.7.6-2.2.9-.6 1-.9.2-.9-.6 0-1.5.5-1.9 1.1zM287.5 295.9c-.3.5-.2 1.2.3 1.5.5.3.9-.1.9-.9 0-1.7-.3-1.9-1.2-.6zM294.8 297.7c.7.3 1.6.2 1.9-.1.4-.3-.2-.6-1.3-.5-1.1 0-1.4.3-.6.6zM341 297.4c0 .2.4 1.6 1 3 .9 2.6 3 3.6 3 1.5 0-.5-.4-.7-1-.4-.5.3-1-.3-1-1.4 0-1.1-.4-2.3-1-2.6-.5-.3-1-.4-1-.1zM55.4 299.6c-1.8 1.4-1.8 1.4.6.3 3.1-1.4 3.6-1.9 2.4-1.9-.6 0-1.9.7-3 1.6zM102.7 299.2c.2.5 1 .8 1.8.8s1.6-.3 1.8-.8c.3-.4-.5-.7-1.8-.7s-2.1.3-1.8.7zM295.3 301.7c.4.3.1 1.3-.6 2.2-1.1 1.4-1 1.4.5.2 1.6-1.2 1.6-3.1.1-3.1-.4 0-.3.3 0 .7zM55 303.1c0 .5-.6.7-1.2.3-.8-.5-.7 0 .2 1.1 1.4 1.7 1.3 1.7-1 1.1-2.2-.6-2.2-.5-.7.4 1 .7 2.1.9 2.5.6.8-.8 1.4-4.6.7-4.6-.3 0-.5.5-.5 1.1zM344 305.4c0 .2.7.9 1.5 1.6.9.7 1.5.8 1.5.2 0-.5-.7-1.2-1.5-1.6-.8-.3-1.5-.4-1.5-.2zM98.5 307c-.3.5-.3 1 .2 1 .4 0 .1.5-.7 1-1.2.7-1.2 1.2-.2 2.2 1.5 1.5 1.6 3.2 0 2.2-.7-.5-.8-.3-.3.5.5.9 1 1 1.8.2.7-.7.6-1.5-.3-2.5-1-1.3-.9-1.7.4-2.2.9-.3 1.6-1.2 1.6-2 0-1.6-1.6-1.9-2.5-.4zM295.6 307.3c.3 1 .9 1.5 1.2 1.2.3-.3 0-1.1-.7-1.8-1-.9-1.1-.8-.5.6zM348.6 307.6c-.4.9-.4 1.9-.1 2.2.3.3.5 0 .5-.7s.4-.9 1-.6c.6.3.7-.1.4-.9-.8-2-1-2-1.8 0zM47.5 308c-.3.5-.1 1 .4 1 .6 0 1.1-.5 1.1-1 0-.6-.2-1-.4-1-.3 0-.8.4-1.1 1zM301.9 309.2c-.4 1.9-.9 5.1-.6 4.7.1-.2.8-1.1 1.5-2.1.9-1.1 1-1.8.2-2.3-.5-.3-1-.5-1.1-.3zM346 309.7c0 .6.5 1.5 1 1.8.6.4.8 1.1.5 1.6-1 1.5.2 1 1.6-.8.8-1 .9-1.4.2-1-.7.4-1.6 0-2.2-1-.6-1-1.1-1.3-1.1-.6zM101.6 311.3c.3 1 .9 1.5 1.2 1.2.3-.3 0-1.1-.7-1.8-1-.9-1.1-.8-.5.6zM47.6 313.9c-.3.5.1 1.4.9 2.1 1 .9 1.5.9 1.5.1 0-.6-.5-1.1-1.1-1.1-.5 0-.7-.5-.4-1 .3-.6.4-1 .1-1-.3 0-.7.4-1 .9zM350 313.4c0 .7 4 1.4 4.4.7.3-.4-.6-.8-2-.9-1.3-.1-2.4 0-2.4.2zM94 316c0 .5.9.8 2 .7 2.1-.1 1.8-1-.5-1.3-.8-.1-1.5.2-1.5.6zM301 316c0 .5.5 1 1.1 1 .5 0 .7-.5.4-1-.3-.6-.8-1-1.1-1-.2 0-.4.4-.4 1zM43 316.3c0 .2.6 1 1.4 1.6 1.1.9 1.6.9 2.2-.1.4-.7.4-1-.1-.6-.4.4-1.4.3-2.2-.3-.7-.6-1.3-.9-1.3-.6zM351 318c0 .5.7.7 1.5.4.8-.4 1.5-.8 1.5-1 0-.2-.7-.4-1.5-.4s-1.5.4-1.5 1zM355.5 318c-.3.5-.4 1 0 1 .3 0 0 1-.6 2.2-.8 1.7-.8 2 0 1.2.6-.6 1.3-2 1.6-3.2.4-2.3 0-2.8-1-1.2zM46.6 319.5c-1.8 1.4-1.8 1.4.1 1.2 1.1 0 2-.7 2-1.4s-.1-1.3-.1-1.3c-.1 0-.9.7-2 1.5zM93.6 318.9c.2.2-.6 1.5-1.8 2.8-1.2 1.3-1.8 2.3-1.4 2.3.5 0 .2.8-.5 1.7-1.2 1.6-1.2 1.7.2.6 1-.8 1.9-.9 2.7-.3.7.6.6.3-.2-.6-1.2-1.4-1.2-1.9.2-3.5 1-1.2 2-1.5 2.7-.9.7.6 1.1.3 1.1-.8 0-1-.8-1.8-1.8-1.8-.9 0-1.5.2-1.2.5zM303.5 318.9c-.3.5 0 1.3.6 1.7.7.4.9.3.5-.4-.3-.5 0-1.3.6-1.5.9-.4 1-.6.1-.6-.6-.1-1.4.3-1.8.8zM301.5 322c-.3.5-.1 1 .4 1 .6 0 1.1-.5 1.1-1 0-.6-.2-1-.4-1-.3 0-.8.4-1.1 1zM42.5 324.1c-.4.6-.5 1.2-.2 1.5.2.3.7-.2 1-1.1.7-1.7.1-2-.8-.4zM305 324.1c0 .5.5.7 1 .4.6-.3 1-.8 1-1.1 0-.2-.4-.4-1-.4-.5 0-1 .5-1 1.1zM352 323.3c0 .3 1 1.2 2.3 2 1.6 1 2.8 1.2 3.8.6 1.2-.8 1.2-.9-.1-.7-.8.1-2.5-.3-3.7-1-1.3-.7-2.3-1.1-2.3-.9zM42.1 328.4c-.8.9-.8 1.6-.2 2 .5.4 1.2.2 1.6-.4.3-.5.3-1-.2-1-.4 0-.1-.5.7-1 .8-.5 1-1 .4-1s-1.7.6-2.3 1.4zM307 327.8c0 .5.7.9 1.5.9s1.2-.4.9-.9c-.3-.4-.9-.8-1.5-.8-.5 0-.9.4-.9.8zM311 327.9c0 .6.4 1.3 1 1.6.6.3.7-.1.4-.9-.7-1.8-1.4-2.1-1.4-.7zM357.5 328.1c-.4.6-.4 1.3-.1 1.6.3.4.6.1.6-.6s.5-.9 1.2-.5.8.3.4-.4c-.9-1.5-1.3-1.5-2.1-.1zM90.2 329.5c.3.3 1.6.8 2.8 1 1.2.2 2 .1 1.6-.2-.4-.4-1.6-.8-2.8-1-1.2-.2-1.9-.1-1.6.2zM307.9 331.2c1.4 1.9 3.2 1.5 3-.5 0-.8-.2-.8-.6.1-.4 1-.8 1-2.1 0-1.5-1.2-1.6-1.1-.3.4zM39.4 332.1c-.4.8-.3.9.4.5s1.2-.2 1.2.3c0 .6-.5 1.1-1.2 1.1-.6 0-.9.3-.5.6.3.3 1.3.2 2.2-.3 1.4-.8 1.4-1.1.2-2.2-1.2-.9-1.7-.9-2.3 0zM358.8 331.7c.7.3 1.6.2 1.9-.1.4-.3-.2-.6-1.3-.5-1.1 0-1.4.3-.6.6zM86 332.3c0 .2.6 1 1.4 1.6 1.1.9 1.6.9 2.2-.1.4-.7.4-1-.1-.6-.4.4-1.4.3-2.2-.3-.7-.6-1.3-.9-1.3-.6zM312 335c-.9.6-1 1-.3 1 .6 0 1.5-.5 1.8-1 .8-1.2.4-1.2-1.5 0zM35.9 336.7c-1.3 1.6-1.2 1.7.4.4.9-.7 1.7-1.5 1.7-1.7 0-.8-.8-.3-2.1 1.3zM314.6 337.5c.4.8 1.1 1.5 1.6 1.5.6 0 .5-.6-.2-1.5-.7-.8-1.4-1.5-1.6-1.5-.2 0-.1.7.2 1.5zM87.5 338.9c-.3.5-.2 1.2.3 1.5.5.3.9-.1.9-.9 0-1.7-.3-1.9-1.2-.6zM365.9 338.2c-.5 1.8-.6 3.8-.1 3.4.7-.8 1.2-3.6.6-3.6-.2 0-.4.1-.5.2zM35.1 340.6c0 1.1.3 1.4.6.6.3-.7.2-1.6-.1-1.9-.3-.4-.6.2-.5 1.3zM360.6 339.8c-.2.4.4.8 1.4.8 1 0 1.6-.4 1.4-.8-.3-.4-.9-.8-1.4-.8-.5 0-1.1.4-1.4.8zM82.5 340.9c.3.2-.2 1.3-1.2 2.3-.9 1-1.2 1.8-.7 1.8s1.5-.9 2.2-2.1c.8-1.2 1.9-1.8 2.8-1.5.8.3 1.2.2.9-.3-.3-.6-1.4-.9-2.5-.8-1 .1-1.7.3-1.5.6zM32.6 344.2c.3.4.9.8 1.5.8.5 0 .9-.4.9-.8 0-.5-.7-.9-1.5-.9s-1.2.4-.9.9zM315.5 344c.3.5.8 1 1.1 1 .2 0 .4-.5.4-1 0-.6-.5-1-1.1-1-.5 0-.7.4-.4 1zM367.5 343.8c.3.3-.1 1.2-.7 2.1-.8 1-.4.9 1-.3 2.6-2.3 2.6-2.3.7-2.3-.8 0-1.3.3-1 .5zM83 345.9c0 .5.8 1.5 1.8 2.2 1.5 1.2 1.6 1.2.5-.2-.7-.9-1-1.9-.6-2.2.3-.4.1-.7-.5-.7-.7 0-1.2.4-1.2.9zM313.6 345.8c-.3.5.1.9.9.9s1.2-.4.9-.9c-.3-.4-.7-.8-.9-.8-.2 0-.6.4-.9.8zM318.4 351.6c-1.8 1.4-1.8 1.5.4.4 1.8-.9 2.7-.8 4 .2 1.5 1.2 1.6 1.1.3-.5-1.7-2.1-2.2-2.1-4.7-.1zM79 352c0 .5.5 1 1 1 .6 0 1-.5 1-1 0-.6-.4-1-1-1-.5 0-1 .4-1 1zM372 352c-.9.6-1 1-.3 1 .6 0 1.5-.5 1.8-1 .8-1.2.4-1.2-1.5 0zM28.5 354.1c-.6.8-.4 1 .5.4 1-.6 1.1-.1.7 2.1-.6 2.7-.6 2.7.5.6 1.3-2.6-.3-5.5-1.7-3.1zM76.3 354.7c-.3 1-.7 2.1-.9 2.4-.2.3.3.6 1 .6.8 0 1.1-.8.8-2-.4-1.5-.2-1.8.8-1.2.9.5 1.1.4.6-.3-1-1.6-1.6-1.5-2.3.5z"/><path d="M318.6 353.9c-.4.5.3.7 1.4.4 2.3-.6 2.6-1.3.6-1.3-.8 0-1.7.4-2 .9zM371.5 356c.2 2.7 1 3.3 1.2 1 .1-1.1-.2-2.2-.6-2.4-.4-.3-.7.4-.6 1.4zM81 356.1c0 .5.5.7 1 .4.6-.3 1-.8 1-1.1 0-.2-.4-.4-1-.4-.5 0-1 .5-1 1.1zM25.6 360.2c.3.5 1 .6 1.5.3 1.3-.9 1.1-1.2-.6-1.2-.8 0-1.2.4-.9.9zM325 360c-.9.6-1 1-.3 1 .6 0 1.5-.5 1.8-1 .8-1.2.4-1.2-1.5 0zM369.2 360.2c.3.7 1.2 1.4 2.2 1.4 1.3.2 1.3.1.1-.3-.8-.2-1.3-.9-1-1.4.4-.5.1-.9-.5-.9-.7 0-1 .6-.8 1.2zM321.5 362c.3.5.8 1 1.1 1 .2 0 .4-.5.4-1 0-.6-.5-1-1.1-1-.5 0-.7.4-.4 1zM326.6 362.6c-.3.8-1 1.3-1.5.9-.5-.3-1.2-.1-1.5.4-.5.8 1.5.8 3.4.1.3-.1.8-.2 1.2-.1.4 0 .5-.6.2-1.4-.8-1.9-1-1.9-1.8.1zM73.5 366.1c-.4.6-.5 1.2-.2 1.5.2.3.7-.2 1-1.1.7-1.7.1-2-.8-.4zM329.8 368.7c.6.2.9 1 .6 1.5-.4.7-.2.8.5.4 1.3-.9.5-2.6-1.2-2.5-.9 0-.8.2.1.6zM325.6 369.8c-.3.4.4.9 1.5.9 2.3.2 2.5-.3.4-1-.8-.4-1.6-.3-1.9.1zM67 374.4c0 .2.8 1 1.8 1.7 1.5 1.3 1.6 1.2.3-.4s-2.1-2.1-2.1-1.3zM51 378c-1.3.8-1.2 1 .3 1 .9 0 1.7-.5 1.7-1 0-1.2-.1-1.2-2 0zM57.6 377.9c-.3.5.2 1.5 1.2 2.2 1.5 1.2 1.6 1.2.5-.2-.7-.9-1-1.9-.6-2.2.3-.4.4-.7 0-.7-.3 0-.8.4-1.1.9zM39.5 378.9c-.3.5-.2 1.2.3 1.5.5.3.9-.1.9-.9 0-1.7-.3-1.9-1.2-.6zM43 379.5c0 .8.2 1.5.4 1.5s.6-.7 1-1.5c.3-.8.1-1.5-.4-1.5-.6 0-1 .7-1 1.5zM347 379.1c0 .5.5.7 1 .4.6-.3 1-.8 1-1.1 0-.2-.4-.4-1-.4-.5 0-1 .5-1 1.1zM343 380.4c0 .2.8 1 1.8 1.7 1.5 1.3 1.6 1.2.3-.4s-2.1-2.1-2.1-1.3zM37.3 382.5c0 .8.4 1.2.9.9.5-.3.6-1 .3-1.5-.9-1.3-1.2-1.1-1.2.6zM51 383.9c0 .6.4 1.3 1 1.6.6.3.7-.1.4-.9-.7-1.8-1.4-2.1-1.4-.7z"/></svg>